<?xml version="1.0" encoding="utf-8"?>
<!-- Generator: Adobe Illustrator 24.3.0, SVG Export Plug-In . SVG Version: 6.00 Build 0)  -->
<svg version="1.1" xmlns="http://www.w3.org/2000/svg" xmlns:xlink="http://www.w3.org/1999/xlink" x="0px" y="0px"
	 viewBox="0 0 700 700" style="enable-background:new 0 0 700 700;" xml:space="preserve">
<style type="text/css">
	.st0{opacity:0.15;}
	.st1{fill:#4E5A5F;}
	.st2{filter:url(#Adobe_OpacityMaskFilter);}
	.st3{opacity:0.44;mask:url(#SVGID_1_);}
	.st4{fill:#37393A;}
	.st5{enable-background:new    ;}
	.st6{clip-path:url(#SVGID_2_);enable-background:new    ;}
	.st7{fill:#A7A9AB;}
	.st8{fill:#ABADAF;}
	.st9{fill:#AFB1B3;}
	.st10{fill:#B3B5B7;}
	.st11{fill:#A3A5A7;}
	.st12{fill:#9FA1A3;}
	.st13{clip-path:url(#SVGID_3_);enable-background:new    ;}
	.st14{fill:#949598;}
	.st15{clip-path:url(#SVGID_4_);enable-background:new    ;}
	.st16{fill:#98999C;}
	.st17{fill:#9B9D9F;}
	.st18{clip-path:url(#SVGID_5_);enable-background:new    ;}
	.st19{clip-path:url(#SVGID_7_);enable-background:new    ;}
	.st20{clip-path:url(#SVGID_9_);enable-background:new    ;}
	.st21{clip-path:url(#SVGID_11_);enable-background:new    ;}
	.st22{clip-path:url(#SVGID_13_);enable-background:new    ;}
	.st23{clip-path:url(#SVGID_15_);enable-background:new    ;}
	.st24{clip-path:url(#SVGID_17_);enable-background:new    ;}
	.st25{clip-path:url(#SVGID_19_);enable-background:new    ;}
	.st26{clip-path:url(#SVGID_21_);enable-background:new    ;}
	.st27{clip-path:url(#SVGID_23_);enable-background:new    ;}
	.st28{clip-path:url(#SVGID_25_);enable-background:new    ;}
	.st29{fill:#D5D6D7;}
	.st30{clip-path:url(#SVGID_27_);enable-background:new    ;}
	.st31{opacity:0.1;}
	.st32{opacity:0.51;}
	.st33{fill:#F8F8F8;}
	.st34{filter:url(#Adobe_OpacityMaskFilter_1_);}
	.st35{opacity:0.33;mask:url(#SVGID_29_);}
	.st36{fill:#BEDCE5;}
	.st37{fill:#FFFFFF;}
	.st38{filter:url(#Adobe_OpacityMaskFilter_2_);}
	.st39{opacity:0.33;mask:url(#SVGID_31_);}
	.st40{filter:url(#Adobe_OpacityMaskFilter_3_);}
	.st41{opacity:0.13;mask:url(#SVGID_33_);}
	.st42{fill:#0B4C5E;}
	.st43{fill:#FFFAF8;}
	.st44{filter:url(#Adobe_OpacityMaskFilter_4_);}
	.st45{opacity:0.33;mask:url(#SVGID_35_);}
	.st46{opacity:0.6;}
	.st47{fill:#ED302B;}
	.st48{fill:#33AFE4;}
	.st49{fill:#19A854;}
	.st50{display:none;}
	.st51{display:inline;}
	.st52{filter:url(#Adobe_OpacityMaskFilter_5_);}
	.st53{opacity:6.000000e-02;mask:url(#SVGID_36_);}
	.st54{fill:#00B7E8;}
	.st55{filter:url(#Adobe_OpacityMaskFilter_6_);}
	.st56{opacity:6.000000e-02;mask:url(#SVGID_37_);}
	.st57{filter:url(#Adobe_OpacityMaskFilter_7_);}
	.st58{opacity:6.000000e-02;mask:url(#SVGID_38_);}
	.st59{filter:url(#Adobe_OpacityMaskFilter_8_);}
	.st60{opacity:6.000000e-02;mask:url(#SVGID_39_);}
</style>
<g id="Layer_9">
	<g class="st0">
		
			<image style="overflow:visible;" width="2295" height="2537" xlink:href="D51DEB5.png"  transform="matrix(0.24 0 0 0.24 85.92 61.92)">
		</image>
	</g>
	<g>
		<g>
			<rect class="st1" width="700" height="700"/>
		</g>
		<defs>
			<filter id="Adobe_OpacityMaskFilter" filterUnits="userSpaceOnUse" x="0" y="0" width="700" height="700">
				
					<feColorMatrix  type="matrix" values="-1 0 0 0 1  0 -1 0 0 1  0 0 -1 0 1  0 0 0 1 0" color-interpolation-filters="sRGB" result="source"/>
			</filter>
		</defs>
		<mask maskUnits="userSpaceOnUse" x="0" y="0" width="700" height="700" id="SVGID_1_">
			<g class="st2">
				
					<image style="overflow:visible;" width="2934" height="2934" xlink:href="D51DEB5.jpg"  transform="matrix(0.24 0 0 0.24 -2.16 -2.16)">
				</image>
			</g>
		</mask>
		<g class="st3">
			<rect class="st4" width="700" height="700"/>
		</g>
	</g>
	<g>
		<g>
			<g class="st5">
				<g class="st5">
					<defs>
						<path id="SVGID_6_" class="st5" d="M215.4,264l7,3.4c6.4,3.1,7.3,6,5.1,12.6c-29.3,88.7-58.7,177.4-88,266
							c-4.2,12.6-3.8,24.5,4.6,35.2c3,3.8,6.6,6.6,10.6,8.5l-7-3.4c-4-1.9-7.5-4.6-10.6-8.5c-8.4-10.7-8.8-22.7-4.6-35.2
							c29.3-88.7,58.7-177.4,88-266C222.7,270.1,221.8,267.1,215.4,264z"/>
					</defs>
					<clipPath id="SVGID_2_">
						<use xlink:href="#SVGID_6_"  style="overflow:visible;"/>
					</clipPath>
					<g class="st6">
						<path class="st7" d="M215.4,264l7,3.4c0.5,0.3,1,0.5,1.5,0.8l-7-3.4C216.4,264.5,215.9,264.3,215.4,264"/>
						<path class="st8" d="M216.9,264.8l7,3.4c0.7,0.4,1.4,0.8,1.9,1.2l-7-3.4C218.2,265.6,217.6,265.2,216.9,264.8"/>
						<path class="st9" d="M218.8,266l7,3.4c0.5,0.4,1,0.8,1.3,1.2l-7-3.4C219.7,266.8,219.3,266.4,218.8,266"/>
						<path class="st10" d="M220.1,267.2l7,3.4c0.6,0.7,1.1,1.5,1.3,2.4l-7-3.4C221.2,268.8,220.7,268,220.1,267.2"/>
						<path class="st9" d="M221.4,269.6l7,3.4c0.1,0.4,0.2,0.8,0.2,1.3l-7-3.4C221.6,270.4,221.5,270,221.4,269.6"/>
						<path class="st8" d="M221.6,270.9l7,3.4c0,0.4,0,0.8,0,1.2l-7-3.4C221.6,271.7,221.6,271.3,221.6,270.9"/>
						<path class="st7" d="M221.6,272.1l7,3.4c0,0.5-0.1,1-0.2,1.6l-7-3.4C221.5,273.2,221.6,272.6,221.6,272.1"/>
						<path class="st11" d="M221.4,273.7l7,3.4c-0.2,0.9-0.4,1.8-0.8,2.9l-7-3.4C220.9,275.6,221.2,274.6,221.4,273.7"/>
						<path class="st12" d="M220.6,276.6l7,3.4c0,0,0,0.1,0,0.1c-29.3,88.7-58.7,177.4-88,266c0,0,0,0.1,0,0.1l-7-3.4
							c0,0,0-0.1,0-0.1C161.9,454,191.2,365.4,220.6,276.6C220.6,276.7,220.6,276.6,220.6,276.6"/>
						<path class="st11" d="M132.5,542.8l7,3.4c-0.7,2.1-1.3,4.2-1.7,6.3l-7-3.4C131.2,547.1,131.8,545,132.5,542.8"/>
						<path class="st7" d="M130.8,549.2l7,3.4c-0.4,1.8-0.6,3.6-0.8,5.4l-7-3.4C130.2,552.8,130.5,551,130.8,549.2"/>
						<path class="st8" d="M130.1,554.6l7,3.4c-0.1,1.7-0.1,3.5,0,5.2l-7-3.4C129.9,558,129.9,556.3,130.1,554.6"/>
						<path class="st9" d="M130,559.7l7,3.4c0.1,2.1,0.5,4.2,1,6.2l-7-3.4C130.5,563.9,130.2,561.8,130,559.7"/>
						<path class="st10" d="M131,566l7,3.4c1.1,4.1,3.1,8.1,6.1,12c0.3,0.4,0.7,0.8,1,1.3l-7-3.4c-0.4-0.4-0.7-0.8-1-1.3
							C134.1,574.1,132.1,570.1,131,566"/>
						<path class="st9" d="M138.2,579.2l7,3.4c1.3,1.5,2.8,2.9,4.3,4l-7-3.4C141,582,139.5,580.7,138.2,579.2"/>
						<path class="st8" d="M142.5,583.2l7,3.4c1.1,0.9,2.3,1.6,3.6,2.3l-7-3.4C144.8,584.8,143.6,584.1,142.5,583.2"/>
						<path class="st7" d="M146,585.5l7,3.4c0.5,0.3,1.1,0.6,1.7,0.9l-7-3.4C147.1,586.1,146.6,585.8,146,585.5"/>
					</g>
				</g>
				<g class="st5">
					<defs>
						<path id="SVGID_8_" class="st5" d="M148.2,598.4l-7-3.4c3.5,1.7,7.5,3,11.7,3.7c10.9,2,22,1.5,33,2.3
							c8.8,0.6,17.7,0.9,26.9,1.4l7,3.4c-9.2-0.5-18.1-0.8-26.9-1.4c-11-0.7-22.1-0.3-33-2.3C155.7,601.3,151.8,600.1,148.2,598.4z"
							/>
					</defs>
					<clipPath id="SVGID_3_">
						<use xlink:href="#SVGID_8_"  style="overflow:visible;"/>
					</clipPath>
					<g class="st13">
						<path class="st14" d="M212.8,602.4l7,3.4c-9.2-0.5-18.1-0.8-26.9-1.4c-11-0.7-22.1-0.3-33-2.3c-4.2-0.8-8.1-2-11.7-3.7l-7-3.4
							c3.5,1.7,7.5,3,11.7,3.7c10.9,2,22,1.5,33,2.3C194.7,601.6,203.5,601.9,212.8,602.4"/>
					</g>
				</g>
				<g>
					<polygon class="st9" points="244.5,587 251.5,590.3 251.5,590.4 244.5,587.1 					"/>
				</g>
				<g class="st5">
					<defs>
						<path id="SVGID_10_" class="st5" d="M254.4,577.2l7,3.4c-1-0.5-2.4-0.5-3.5-0.6c-3.1-0.3-6.2-0.5-9.3-0.4c-0.2,0-0.4,0-0.5,0
							c-3.6,0.1-6.8,3.7-6.5,7.3c0.1,1.6,0.8,2.4,1.7,2.9l-7-3.4c-0.9-0.4-1.6-1.3-1.7-2.9c-0.3-3.6,2.9-7.2,6.5-7.3
							c0.2,0,0.4,0,0.5,0c3.1-0.1,6.2,0.1,9.3,0.4C252,576.7,253.4,576.7,254.4,577.2z"/>
					</defs>
					<clipPath id="SVGID_4_">
						<use xlink:href="#SVGID_10_"  style="overflow:visible;"/>
					</clipPath>
					<g class="st15">
						<path class="st14" d="M254.4,577.2l7,3.4c-1-0.5-2.4-0.5-3.5-0.6c-3.1-0.3-6.2-0.5-9.3-0.4c-0.2,0-0.4,0-0.5,0
							c-1.8,0.1-3.5,1-4.8,2.4l-7-3.4c1.2-1.4,2.9-2.3,4.8-2.4c0.2,0,0.4,0,0.5,0c3.1-0.1,6.2,0.1,9.3,0.4
							C252,576.7,253.4,576.7,254.4,577.2"/>
						<path class="st16" d="M236.3,578.6l7,3.4c-0.3,0.3-0.5,0.6-0.7,0.9l-7-3.4C235.8,579.2,236.1,578.9,236.3,578.6"/>
						<path class="st17" d="M235.6,579.5l7,3.4c-0.2,0.3-0.3,0.5-0.5,0.8l-7-3.4C235.3,580.1,235.4,579.8,235.6,579.5"/>
						<path class="st12" d="M235.2,580.3l7,3.4c-0.1,0.2-0.2,0.5-0.3,0.8l-7-3.4C234.9,580.8,235,580.6,235.2,580.3"/>
						<path class="st11" d="M234.9,581.1l7,3.4c-0.1,0.2-0.1,0.5-0.2,0.7l-7-3.4C234.7,581.6,234.8,581.3,234.9,581.1"/>
						<path class="st7" d="M234.7,581.8l7,3.4c0,0.2-0.1,0.5-0.1,0.7l-7-3.4C234.6,582.3,234.6,582.1,234.7,581.8"/>
						<path class="st8" d="M234.6,582.6l7,3.4c0,0.3,0,0.5,0,0.8l-7-3.4C234.5,583.1,234.5,582.9,234.6,582.6"/>
						<path class="st9" d="M234.5,583.4l7,3.4c0,0,0,0.1,0,0.1c0,0.3,0.1,0.7,0.2,0.9l-7-3.4C234.6,584.1,234.6,583.8,234.5,583.4
							C234.6,583.5,234.5,583.4,234.5,583.4"/>
						<path class="st10" d="M234.7,584.4l7,3.4c0.1,0.5,0.4,0.9,0.6,1.3l-7-3.4C235.1,585.4,234.9,584.9,234.7,584.4"/>
						<path class="st9" d="M235.3,585.7l7,3.4c0.1,0.1,0.3,0.3,0.4,0.4l-7-3.4C235.6,585.9,235.5,585.8,235.3,585.7"/>
						<path class="st8" d="M235.7,586l7,3.4c0.1,0.1,0.2,0.2,0.3,0.2l-7-3.4C236,586.2,235.8,586.1,235.7,586"/>
						<path class="st7" d="M236.1,586.3l7,3.4c0.1,0,0.1,0.1,0.2,0.1l-7-3.4C236.2,586.3,236.1,586.3,236.1,586.3"/>
					</g>
				</g>
				<g>
					<polygon class="st9" points="273.7,588.4 280.7,591.8 280.7,591.9 273.7,588.6 					"/>
				</g>
				<g class="st5">
					<defs>
						<path id="SVGID_12_" class="st5" d="M507.4,105.6l7,3.4c-1-0.5-2.1-0.7-3.4-0.8c-36.5-1.7-73-3.4-109.6-5.3
							c-21.5-1.1-43.1-2.3-64.6-3.6c-1.6-0.1-3.2-0.1-4.8-0.1c-26.5,0.5-50.3,17.5-59,43.3c-10,29.8-19.8,59.6-29.7,89.4
							c-0.3,0.8-0.6,1.5-0.9,2.2l-7-3.4c0.3-0.8,0.7-1.5,0.9-2.2c9.9-29.8,19.7-59.7,29.7-89.4c8.7-25.8,32.5-42.8,59-43.3
							c1.6,0,3.2,0,4.8,0.1c21.5,1.3,43.1,2.5,64.6,3.6c36.5,1.8,73,3.6,109.6,5.3C505.4,104.9,506.5,105.2,507.4,105.6z"/>
					</defs>
					<clipPath id="SVGID_5_">
						<use xlink:href="#SVGID_12_"  style="overflow:visible;"/>
					</clipPath>
					<g class="st18">
						<path class="st14" d="M507.4,105.6l7,3.4c-1-0.5-2.1-0.7-3.4-0.8c-36.5-1.7-73-3.4-109.6-5.3c-21.5-1.1-43.1-2.3-64.6-3.6
							c-1.6-0.1-3.2-0.1-4.8-0.1c-18,0.3-34.8,8.3-46.4,21.5l-7-3.4c11.6-13.2,28.4-21.2,46.4-21.5c1.6,0,3.2,0,4.8,0.1
							c21.5,1.3,43.1,2.5,64.6,3.6c36.5,1.8,73,3.6,109.6,5.3C505.4,104.9,506.5,105.2,507.4,105.6"/>
						<path class="st16" d="M278.6,117.5l7,3.4c-2.2,2.5-4.2,5.1-5.9,7.9l-7-3.4C274.4,122.6,276.4,119.9,278.6,117.5"/>
						<path class="st17" d="M272.7,125.4l7,3.4c-1.5,2.3-2.8,4.7-3.9,7.2l-7-3.4C269.9,130.1,271.2,127.7,272.7,125.4"/>
						<path class="st12" d="M268.7,132.6l7,3.4c-1,2.1-1.9,4.4-2.7,6.6c-10,29.8-19.8,59.6-29.7,89.4c-0.3,0.8-0.6,1.5-0.9,2.2
							l-7-3.4c0.3-0.8,0.7-1.5,0.9-2.2c9.9-29.8,19.7-59.7,29.7-89.4C266.8,136.9,267.7,134.7,268.7,132.6"/>
					</g>
				</g>
				<g class="st5">
					<defs>
						<path id="SVGID_14_" class="st5" d="M283.3,578.7l7,3.4c-0.9-0.4-2.2-0.4-3.3-0.7c-2.3-0.5-4.6-0.6-6.9-0.6
							c-1.3,0-2.6,0.1-3.9,0.2c-4.2,0.4-5.2,3.8-5.3,7.2c-0.1,1.7,0.6,2.5,1.5,2.9l-7-3.4c-0.9-0.4-1.5-1.3-1.5-2.9
							c0.1-3.4,1.1-6.8,5.3-7.2c1.3-0.1,2.6-0.2,3.9-0.2c2.3,0,4.6,0.1,6.9,0.6C281.1,578.3,282.4,578.3,283.3,578.7z"/>
					</defs>
					<clipPath id="SVGID_7_">
						<use xlink:href="#SVGID_14_"  style="overflow:visible;"/>
					</clipPath>
					<g class="st19">
						<path class="st14" d="M283.3,578.7l7,3.4c-0.9-0.4-2.2-0.4-3.3-0.7c-2.3-0.5-4.6-0.6-6.9-0.6c-1.3,0-2.6,0.1-3.9,0.2
							c-1.7,0.2-2.8,0.8-3.6,1.7l-7-3.4c0.8-0.9,2-1.5,3.6-1.7c1.3-0.1,2.6-0.2,3.9-0.2c2.3,0,4.6,0.1,6.9,0.6
							C281.1,578.3,282.4,578.3,283.3,578.7"/>
						<path class="st16" d="M265.6,579.4l7,3.4c-0.2,0.2-0.3,0.4-0.5,0.6l-7-3.4C265.2,579.8,265.4,579.6,265.6,579.4"/>
						<path class="st17" d="M265.1,580l7,3.4c-0.1,0.2-0.3,0.4-0.4,0.7l-7-3.4C264.8,580.5,265,580.3,265.1,580"/>
						<path class="st12" d="M264.7,580.7l7,3.4c-0.1,0.3-0.2,0.5-0.3,0.8l-7-3.4C264.5,581.2,264.6,581,264.7,580.7"/>
						<path class="st11" d="M264.4,581.5l7,3.4c-0.1,0.3-0.2,0.7-0.3,1.1l-7-3.4C264.2,582.2,264.3,581.9,264.4,581.5"/>
						<path class="st7" d="M264.1,582.6l7,3.4c-0.1,0.5-0.2,1.1-0.2,1.7l-7-3.4C264,583.7,264,583.1,264.1,582.6"/>
						<path class="st8" d="M263.9,584.2l7,3.4c0,0.2,0,0.5,0,0.7c0,0.2,0,0.4,0,0.6l-7-3.4c0-0.2,0-0.4,0-0.6
							C263.9,584.7,263.9,584.5,263.9,584.2"/>
						<path class="st9" d="M263.9,585.5l7,3.4c0,0.3,0.1,0.5,0.1,0.8l-7-3.4C264,586,263.9,585.8,263.9,585.5"/>
						<path class="st10" d="M264,586.3l7,3.4c0.1,0.4,0.3,0.7,0.5,1l-7-3.4C264.3,587,264.1,586.7,264,586.3"/>
						<path class="st9" d="M264.5,587.3l7,3.4c0.1,0.1,0.2,0.2,0.3,0.3l-7-3.4C264.7,587.5,264.6,587.4,264.5,587.3"/>
						<path class="st8" d="M264.9,587.6l7,3.4c0.1,0.1,0.2,0.1,0.3,0.2l-7-3.4C265.1,587.7,265,587.6,264.9,587.6"/>
						<path class="st7" d="M265.2,587.8l7,3.4c0.1,0,0.1,0.1,0.2,0.1l-7-3.4C265.3,587.8,265.2,587.8,265.2,587.8"/>
					</g>
				</g>
				<g class="st5">
					<defs>
						<path id="SVGID_16_" class="st5" d="M312.2,580.1l7,3.4c-1.1-0.5-2.7-0.3-3.9-0.5c-2.8-0.2-5.7-0.5-8.5-0.5
							c-0.4,0-0.9,0-1.3,0c-4.2,0.2-5.3,3.8-5.7,7c-0.2,1.7,0.3,2.5,1.2,2.9l-7-3.4c-0.9-0.4-1.4-1.2-1.2-2.9c0.4-3.2,1.5-6.8,5.7-7
							c0.4,0,0.9,0,1.3,0c2.8,0,5.7,0.2,8.5,0.5C309.5,579.7,311.1,579.5,312.2,580.1z"/>
					</defs>
					<clipPath id="SVGID_9_">
						<use xlink:href="#SVGID_16_"  style="overflow:visible;"/>
					</clipPath>
					<g class="st20">
						<path class="st14" d="M312.2,580.1l7,3.4c-1.1-0.5-2.7-0.3-3.9-0.5c-2.8-0.2-5.7-0.5-8.5-0.5c-0.4,0-0.9,0-1.3,0
							c-1.7,0.1-2.9,0.7-3.7,1.7l-7-3.4c0.8-1,2-1.6,3.7-1.7c0.4,0,0.9,0,1.3,0c2.8,0,5.7,0.2,8.5,0.5
							C309.5,579.7,311.1,579.5,312.2,580.1"/>
						<path class="st16" d="M294.7,580.9l7,3.4c-0.2,0.2-0.4,0.5-0.5,0.7l-7-3.4C294.4,581.3,294.5,581.1,294.7,580.9"/>
						<path class="st17" d="M294.2,581.6l7,3.4c-0.2,0.2-0.3,0.5-0.4,0.8l-7-3.4C293.9,582.1,294,581.8,294.2,581.6"/>
						<path class="st12" d="M293.8,582.3l7,3.4c-0.1,0.3-0.3,0.6-0.4,1l-7-3.4C293.5,583,293.6,582.7,293.8,582.3"/>
						<path class="st11" d="M293.4,583.3l7,3.4c-0.2,0.5-0.3,0.9-0.4,1.4l-7-3.4C293.1,584.3,293.3,583.8,293.4,583.3"/>
						<path class="st7" d="M293,584.7l7,3.4c-0.1,0.5-0.2,1-0.2,1.5c0,0.1,0,0.2,0,0.3l-7-3.4c0-0.1,0-0.2,0-0.3
							C292.9,585.7,292.9,585.2,293,584.7"/>
						<path class="st8" d="M292.8,586.5l7,3.4c0,0.2,0,0.5,0,0.7l-7-3.4C292.8,586.9,292.8,586.7,292.8,586.5"/>
						<path class="st9" d="M292.8,587.1l7,3.4c0,0.2,0,0.4,0.1,0.6l-7-3.4C292.8,587.6,292.8,587.4,292.8,587.1"/>
						<path class="st10" d="M292.9,587.8l7,3.4c0.1,0.3,0.2,0.6,0.4,0.8l-7-3.4C293.1,588.4,293,588.1,292.9,587.8"/>
						<path class="st9" d="M293.3,588.6l7,3.4c0.1,0.1,0.2,0.2,0.3,0.3l-7-3.4C293.5,588.8,293.4,588.7,293.3,588.6"/>
						<path class="st8" d="M293.6,588.9l7,3.4c0.1,0.1,0.2,0.1,0.3,0.2l-7-3.4C293.8,589,293.7,588.9,293.6,588.9"/>
						<path class="st7" d="M293.9,589l7,3.4c0,0,0.1,0.1,0.1,0.1l-7-3.4C294,589.1,293.9,589.1,293.9,589"/>
					</g>
				</g>
				<g class="st5">
					<defs>
						<path id="SVGID_18_" class="st5" d="M304.1,611.2l7,3.4c-1.6-0.8-3.5-1.1-5.6-1.2c-12-0.3-24-0.9-36-1.6c-0.6,0-1.1-0.1-1.6,0
							c-2.1,0-4.1,0.5-5.9,1.8c-5.7,4.3-11.9,6-18.4,6.1c-3,0.1-6.1-0.2-9.2-0.8c-4.8-0.8-9.8,0.2-14.8-0.7
							c-0.8-0.1-1.3-0.3-1.8-0.5l-7-3.4c0.4,0.2,1,0.4,1.8,0.5c4.9,0.8,9.9-0.1,14.8,0.7c3.1,0.5,6.2,0.8,9.2,0.8
							c6.5-0.1,12.6-1.8,18.4-6.1c1.8-1.3,3.7-1.8,5.9-1.8c0.5,0,1.1,0,1.6,0c12,0.7,24,1.3,36,1.6
							C300.6,610.1,302.5,610.4,304.1,611.2z"/>
					</defs>
					<clipPath id="SVGID_11_">
						<use xlink:href="#SVGID_18_"  style="overflow:visible;"/>
					</clipPath>
					<g class="st21">
						<path class="st14" d="M304.1,611.2l7,3.4c-1.6-0.8-3.5-1.1-5.6-1.2c-12-0.3-24-0.9-36-1.6c-0.6,0-1.1-0.1-1.6,0
							c-2.1,0-4.1,0.5-5.9,1.8c-5.7,4.3-11.9,6-18.4,6.1c-3,0.1-6.1-0.2-9.2-0.8c-4.8-0.8-9.8,0.2-14.8-0.7
							c-0.8-0.1-1.3-0.3-1.8-0.5l-7-3.4c0.4,0.2,1,0.4,1.8,0.5c4.9,0.8,9.9-0.1,14.8,0.7c3.1,0.5,6.2,0.8,9.2,0.8
							c6.5-0.1,12.6-1.8,18.4-6.1c1.8-1.3,3.7-1.8,5.9-1.8c0.5,0,1.1,0,1.6,0c12,0.7,24,1.3,36,1.6
							C300.6,610.1,302.5,610.4,304.1,611.2"/>
					</g>
				</g>
				<g class="st5">
					<defs>
						<path id="SVGID_20_" class="st5" d="M341.3,581.6l7,3.4c-0.3-0.1-0.6-0.2-1-0.2c-3.9-0.3-7.8-0.7-11.7-0.7
							c-0.6,0-1.1,0-1.7,0.1c-3.9,0.2-4.9,3.8-5.2,7c-0.2,1.7,0.4,2.5,1.2,2.9l-7-3.4c-0.8-0.4-1.4-1.2-1.2-2.9
							c0.3-3.1,1.3-6.7,5.2-7c0.5,0,1.1-0.1,1.7-0.1c3.9-0.1,7.8,0.4,11.7,0.7C340.8,581.4,341.1,581.5,341.3,581.6z"/>
					</defs>
					<clipPath id="SVGID_13_">
						<use xlink:href="#SVGID_20_"  style="overflow:visible;"/>
					</clipPath>
					<g class="st22">
						<path class="st14" d="M341.3,581.6l7,3.4c-0.3-0.1-0.6-0.2-1-0.2c-3.9-0.3-7.8-0.7-11.7-0.7c-0.6,0-1.1,0-1.7,0.1
							c-1.5,0.1-2.6,0.7-3.3,1.5l-7-3.4c0.8-0.9,1.8-1.5,3.3-1.5c0.5,0,1.1-0.1,1.7-0.1c3.9-0.1,7.8,0.4,11.7,0.7
							C340.8,581.4,341.1,581.5,341.3,581.6"/>
						<path class="st16" d="M323.8,582.3l7,3.4c-0.2,0.2-0.3,0.4-0.5,0.7l-7-3.4C323.4,582.7,323.6,582.5,323.8,582.3"/>
						<path class="st17" d="M323.3,583l7,3.4c-0.1,0.2-0.3,0.5-0.4,0.7l-7-3.4C323,583.4,323.1,583.2,323.3,583"/>
						<path class="st12" d="M322.9,583.7l7,3.4c-0.1,0.3-0.3,0.6-0.4,0.9l-7-3.4C322.6,584.3,322.7,584,322.9,583.7"/>
						<path class="st11" d="M322.5,584.6l7,3.4c-0.1,0.4-0.2,0.9-0.3,1.3l-7-3.4C322.2,585.5,322.4,585,322.5,584.6"/>
						<path class="st7" d="M322.2,585.9l7,3.4c-0.1,0.6-0.2,1.2-0.3,1.8c0,0,0,0.1,0,0.1l-7-3.4c0,0,0-0.1,0-0.1
							C322,587.1,322,586.5,322.2,585.9"/>
						<path class="st8" d="M321.9,587.8l7,3.4c0,0.3,0,0.5,0,0.7l-7-3.4C321.9,588.4,321.9,588.1,321.9,587.8"/>
						<path class="st9" d="M321.9,588.6l7,3.4c0,0.2,0.1,0.5,0.1,0.7l-7-3.4C321.9,589,321.9,588.8,321.9,588.6"/>
						<path class="st10" d="M322,589.2l7,3.4c0.1,0.3,0.2,0.6,0.4,0.8l-7-3.4C322.2,589.8,322.1,589.6,322,589.2"/>
						<path class="st9" d="M322.4,590.1l7,3.4c0.1,0.1,0.2,0.2,0.3,0.3l-7-3.4C322.6,590.3,322.5,590.2,322.4,590.1"/>
						<path class="st8" d="M322.7,590.3l7,3.4c0.1,0.1,0.2,0.1,0.3,0.2l-7-3.4C322.9,590.5,322.8,590.4,322.7,590.3"/>
						<path class="st7" d="M323,590.5l7,3.4c0,0,0.1,0,0.1,0.1l-7-3.4C323.1,590.6,323,590.5,323,590.5"/>
					</g>
				</g>
				<g class="st5">
					<defs>
						<path id="SVGID_22_" class="st5" d="M320.6,622.9l-7-3.4c1,0.5,2.1,0.8,3.4,0.8c9.5,0.2,19,0.7,28.8,1.1l7,3.4
							c-9.8-0.4-19.3-0.8-28.8-1.1C322.7,623.6,321.6,623.3,320.6,622.9z"/>
					</defs>
					<clipPath id="SVGID_15_">
						<use xlink:href="#SVGID_22_"  style="overflow:visible;"/>
					</clipPath>
					<g class="st23">
						<path class="st14" d="M345.8,621.4l7,3.4c-9.8-0.4-19.3-0.8-28.8-1.1c-1.3,0-2.4-0.3-3.4-0.8l-7-3.4c1,0.5,2.1,0.8,3.4,0.8
							C326.5,620.6,336,621,345.8,621.4"/>
					</g>
				</g>
				<g class="st5">
					<defs>
						<path id="SVGID_24_" class="st5" d="M347.2,577l7,3.4c1.5,0.7,2.5,2,3.1,4.3c1.6,5.8,5.5,10.9,5.7,17.2c0,0.8,0.3,1.1,0.6,1.3
							l-7-3.4c-0.3-0.2-0.6-0.5-0.6-1.3c-0.2-6.3-4.1-11.4-5.7-17.2C349.7,579,348.7,577.8,347.2,577z"/>
					</defs>
					<clipPath id="SVGID_17_">
						<use xlink:href="#SVGID_24_"  style="overflow:visible;"/>
					</clipPath>
					<g class="st24">
						<path class="st7" d="M347.2,577l7,3.4c0.1,0,0.2,0.1,0.3,0.2l-7-3.4C347.4,577.1,347.3,577.1,347.2,577"/>
						<path class="st8" d="M347.5,577.2l7,3.4c0.2,0.1,0.4,0.2,0.6,0.4l-7-3.4C347.9,577.4,347.7,577.3,347.5,577.2"/>
						<path class="st9" d="M348.1,577.6l7,3.4c0.3,0.2,0.5,0.4,0.7,0.7l-7-3.4C348.6,578,348.3,577.8,348.1,577.6"/>
						<path class="st10" d="M348.8,578.3l7,3.4c0.6,0.7,1.1,1.7,1.5,3.1c1.2,4.5,3.8,8.5,5,13l-7-3.4c-1.2-4.5-3.8-8.5-5-13
							C349.9,580,349.4,579,348.8,578.3"/>
						<path class="st9" d="M355.4,594.4l7,3.4c0.3,1.1,0.5,2.3,0.6,3.5l-7-3.4C355.9,596.7,355.7,595.5,355.4,594.4"/>
						<path class="st8" d="M356,597.9l7,3.4c0,0.2,0,0.4,0,0.6c0,0,0,0.1,0,0.1l-7-3.4c0,0,0-0.1,0-0.1
							C356,598.3,356,598.1,356,597.9"/>
						<path class="st9" d="M356,598.7l7,3.4c0,0.2,0,0.3,0.1,0.5l-7-3.4C356,599,356,598.9,356,598.7"/>
						<path class="st10" d="M356.1,599.1l7,3.4c0.1,0.2,0.1,0.3,0.2,0.5l-7-3.4C356.2,599.5,356.1,599.3,356.1,599.1"/>
						<path class="st9" d="M356.3,599.6l7,3.4c0,0,0.1,0.1,0.1,0.1l-7-3.4C356.4,599.7,356.3,599.7,356.3,599.6"/>
						<path class="st8" d="M356.4,599.7l7,3.4c0,0,0.1,0.1,0.1,0.1l-7-3.4C356.5,599.8,356.5,599.8,356.4,599.7"/>
						<path class="st7" d="M356.5,599.8l7,3.4c0,0,0,0,0.1,0L356.5,599.8C356.6,599.8,356.5,599.8,356.5,599.8"/>
					</g>
				</g>
				<g class="st5">
					<defs>
						<path id="SVGID_26_" class="st5" d="M355,609.6l7,3.4c-2.3,0-3.1,0.9-3.6,2.5c-0.7,2.2-1.5,4.4-2.2,6.6
							c-0.5,1.7-1.7,2.7-3.4,2.7l-7-3.4c1.7,0,2.9-1,3.4-2.7c0.7-2.2,1.4-4.4,2.2-6.6C351.9,610.5,352.7,609.6,355,609.6z"/>
					</defs>
					<clipPath id="SVGID_19_">
						<use xlink:href="#SVGID_26_"  style="overflow:visible;"/>
					</clipPath>
					<g class="st25">
						<path class="st14" d="M355,609.6l7,3.4c-1.4,0-2.3,0.4-2.8,1l-7-3.4C352.7,609.9,353.6,609.6,355,609.6"/>
						<path class="st16" d="M352.2,610.6l7,3.4c-0.1,0.1-0.2,0.2-0.3,0.4l-7-3.4C352,610.8,352.1,610.7,352.2,610.6"/>
						<path class="st17" d="M351.9,610.9l7,3.4c-0.1,0.1-0.2,0.3-0.2,0.4l-7-3.4C351.7,611.2,351.8,611.1,351.9,610.9"/>
						<path class="st12" d="M351.7,611.4l7,3.4c-0.1,0.2-0.2,0.4-0.3,0.7c-0.3,1-0.7,2.1-1,3.1l-7-3.4c0.3-1,0.7-2.1,1-3.1
							C351.5,611.8,351.6,611.6,351.7,611.4"/>
						<path class="st11" d="M350.4,615.2l7,3.4c-0.4,1.2-0.8,2.3-1.1,3.5c0,0,0,0,0,0.1l-7-3.4c0,0,0,0,0-0.1
							C349.6,617.5,350,616.3,350.4,615.2"/>
						<path class="st12" d="M349.2,618.7l7,3.4c-0.1,0.2-0.2,0.4-0.2,0.6l-7-3.4C349.1,619.1,349.1,618.9,349.2,618.7"/>
						<path class="st17" d="M349,619.3l7,3.4c-0.1,0.2-0.2,0.3-0.3,0.5l-7-3.4C348.8,619.7,348.9,619.5,349,619.3"/>
						<path class="st16" d="M348.7,619.8l7,3.4c-0.1,0.2-0.2,0.3-0.3,0.5l-7-3.4C348.5,620.2,348.6,620,348.7,619.8"/>
						<path class="st14" d="M348.3,620.3l7,3.4c-0.6,0.7-1.5,1.1-2.5,1.1l-7-3.4C346.9,621.4,347.7,621,348.3,620.3"/>
					</g>
				</g>
				<g class="st5">
					<defs>
						<path id="SVGID_28_" class="st5" d="M514.7,96.1l7,3.4c1,0.5,1.7,1.2,2.4,2.2c24.1,32.8,48.2,65.5,72.4,98.2l-7-3.4
							c-24.2-32.7-48.2-65.5-72.4-98.2C516.4,97.3,515.6,96.6,514.7,96.1z"/>
					</defs>
					<clipPath id="SVGID_21_">
						<use xlink:href="#SVGID_28_"  style="overflow:visible;"/>
					</clipPath>
					<g class="st26">
						<path class="st7" d="M514.7,96.1l7,3.4c0.1,0,0.2,0.1,0.2,0.1l-7-3.4C514.8,96.2,514.7,96.2,514.7,96.1"/>
						<path class="st8" d="M514.9,96.2l7,3.4c0.2,0.1,0.4,0.2,0.6,0.4l-7-3.4C515.3,96.5,515.1,96.4,514.9,96.2"/>
						<path class="st9" d="M515.5,96.6l7,3.4c0.3,0.3,0.7,0.6,1,0.9l-7-3.4C516.2,97.2,515.8,96.9,515.5,96.6"/>
						<path class="st10" d="M516.5,97.6l7,3.4c0.2,0.2,0.4,0.5,0.6,0.7c24.1,32.8,48.2,65.5,72.4,98.2l-7-3.4
							c-24.2-32.7-48.2-65.5-72.4-98.2C516.9,98,516.7,97.8,516.5,97.6"/>
					</g>
				</g>
				<g class="st5">
					<defs>
						<path id="SVGID_30_" class="st5" d="M474.2,518.5l7,3.4c-0.5-0.2-1.1-0.4-2-0.5c-1-0.1-1.9-0.4-2.6-0.8l-7-3.4
							c0.8,0.4,1.6,0.6,2.6,0.8C473.1,518.1,473.7,518.3,474.2,518.5z"/>
					</defs>
					<clipPath id="SVGID_23_">
						<use xlink:href="#SVGID_30_"  style="overflow:visible;"/>
					</clipPath>
					<g class="st27">
						<path class="st14" d="M474.2,518.5l7,3.4c-0.5-0.2-1.1-0.4-2-0.5c-1-0.1-1.9-0.4-2.6-0.8l-7-3.4c0.8,0.4,1.6,0.6,2.6,0.8
							C473.1,518.1,473.7,518.3,474.2,518.5"/>
					</g>
				</g>
				<g class="st5">
					<defs>
						<path id="SVGID_32_" class="st5" d="M466.4,552.6l-7-3.4c0.8,0.4,1.7,0.7,2.8,0.9c0.8,0.2,1.6,0.2,2.6,0.3l7,3.4
							c-1-0.1-1.8-0.1-2.6-0.3C468.2,553.3,467.2,553,466.4,552.6z"/>
					</defs>
					<clipPath id="SVGID_25_">
						<use xlink:href="#SVGID_32_"  style="overflow:visible;"/>
					</clipPath>
					<g class="st28">
						<path class="st14" d="M464.8,550.5l7,3.4c-1-0.1-1.8-0.1-2.6-0.3c-1-0.2-2-0.5-2.8-0.9l-7-3.4c0.8,0.4,1.7,0.7,2.8,0.9
							C463,550.4,463.8,550.4,464.8,550.5"/>
					</g>
				</g>
				<g>
					<path class="st29" d="M589.4,196.5c2.1,2.8,0.9,5.4,0.1,8c-14.6,44.1-29.2,88.2-43.8,132.3c-16.6,50.1-33.2,100.1-49.8,150.2
						c-0.8,2.5-2,4.9,1.4,6.6c1.5,0.7,1.9,2.7,1.6,4.4c-1.1,5.5-2.7,10.8-5.3,15.7c-1.2,2.2-3.5,3.4-5.9,4.3
						c-3.8,1.5-4.2,4.3-1.2,7.1c2,1.8,2.3,4,1.6,6.4c-1.3,4.4-2.6,8.8-4.3,13c-1.2,2.9-3.9,4.4-6.7,5.6c-3.8,1.6-4.3,4.3-1.3,7
						c2.6,2.3,2.2,5,1.5,7.7c-0.8,3-1.9,5.9-2.9,8.8c-2,5.9-5.4,8.7-11.7,8.8c-2.4,0.1-3.9,1-5.4,2.7
						c-13.4,14.7-29.6,24.1-49.5,26.5c-1.7,0.2-3.4,0.3-5.1,0.3c-5.7,0.1-11.4-0.6-17.1-0.7c-10.2-0.2-20.4-0.9-30.6-1.6
						c-2.3,0-3.1,0.9-3.6,2.5c-0.7,2.2-1.5,4.4-2.2,6.6c-0.5,1.7-1.7,2.7-3.4,2.7c-9.8-0.4-19.3-0.8-28.8-1.1
						c-4.6-0.1-6.9-3.5-9.4-6.4c-2.5-2.9-5.4-3.8-9.1-3.9c-12-0.3-24-0.9-36-1.6c-0.6,0-1.1-0.1-1.6,0c-2.1,0-4.1,0.5-5.9,1.8
						c-5.7,4.3-11.9,6-18.4,6.1c-3,0.1-6.1-0.2-9.2-0.8c-4.8-0.8-9.8,0.2-14.8-0.7c-3.2-0.6-3.4-1.8-2.5-4.3s1.7-5,2.7-8.1
						c-9.2-0.5-18.1-0.8-26.9-1.4c-11-0.7-22.1-0.3-33-2.3c-25.4-4.6-39.2-27.3-31.1-52.4c13.8-42.9,28.1-85.7,42.3-128.6
						c16.9-51.3,33.9-102.7,50.9-154c6.9,3.2,7.8,6.1,5.6,12.9c-29.3,88.7-58.7,177.4-88,266c-4.2,12.6-3.8,24.5,4.6,35.2
						c6.7,8.5,16.1,11.6,26.4,12.2c16.1,1,32.2,1.6,48.4,2.4c2.6,0,3.9-1,5.5-2.7c6.1-6.3,12.9-11.9,19.4-17.9c0.8-0.8,1.8-1,2.8-1
						c0.7,0,1.3,0.1,1.9,0.1c21.4,1.1,42.8,2.2,64.1,3.3c12.3,0.6,24.7,1.4,37,1.8c4,0.1,6.4,0.9,7.5,5.1c1.6,5.8,5.5,10.9,5.7,17.2
						c0,1.6,1,1.4,2,1.4c15.6,0.7,31.3,1.9,46.9,2.1c17.1-0.3,30.2-7.4,41.6-18.1c1.2-1.2,2.5-2,0.5-3.9c-3.7-3.7-1.9-7.4,1.1-10.4
						c3.9-3.9,7.9-7.7,12.2-11c2.8-2.1,3.8-4.7,4.5-8.1c-1-0.1-1.8-0.1-2.6-0.3c-7.1-1.5-8.9-7.1-3.7-12.4c4-4.2,8.6-7.9,12.9-11.7
						c1.3-1.1,2.4-2.1,2.9-3.8c0.7-2.4,1.7-3.9-2.3-4.4c-6.4-0.8-8-6.9-3.3-11.8c4-4.2,8.4-8,12.9-11.7c1.8-1.5,2.8-3,3.5-5.2
						c31.1-94.2,62.2-188.4,93.5-282.5c1-2.9,0.5-4.9-1.2-7.2c-22.4-30.3-44.7-60.7-67-91.1c-1.7-2.3-3.6-3.4-6.5-3.5
						c-36.5-1.7-73-3.4-109.6-5.3c-21.5-1.1-43.1-2.3-64.6-3.6c-1.6-0.1-3.2-0.1-4.8-0.1c-26.5,0.5-50.3,17.5-59,43.3
						c-10,29.8-19.8,59.6-29.7,89.4c-0.3,0.8-0.6,1.5-0.9,2.2c-6.5-5.5-6.2-11-3.7-18c9-25.6,17.1-51.4,25.8-77.1
						c8.8-26.2,38.4-48.8,65.9-49.3c16.5-0.2,32.5,1.6,48.6,2.5c11.3,0.6,22.6,1.1,33.9,1.6c18,0.9,36.1,1.9,54.1,2.9
						c11.2,0.6,22.3,1.1,33.5,1.6c6.4,0.3,12.8,0.5,19.2,0.6c2.1,0,3.3,1.1,4.4,2.6C541.2,131,565.2,163.8,589.4,196.5z M255.6,580
						c0.5-3.4-2.6-3.2-4.7-3.4c-3.1-0.3-6.2-0.5-9.3-0.4c-0.2,0-0.4,0-0.5,0c-3.6,0.1-6.8,3.7-6.5,7.3c0.3,3.7,3.5,3.3,6,3.5
						c0.5,0,1,0.1,1.5,0.1c0.8,0,1.6-0.1,2.4-0.1l0,0.1c1.2,0,2.4,0,3.6,0c0.8,0,1.5-0.1,2.3-0.2C254.3,586.4,255.1,583,255.6,580
						 M279.6,588.4c3.9-0.6,4.6-4,4.9-7.1c0.3-3.2-2.5-2.8-4.5-3.3c-2.3-0.5-4.6-0.6-6.9-0.6c-1.3,0-2.6,0.1-3.9,0.2
						c-4.2,0.4-5.2,3.8-5.3,7.2c-0.1,3.7,3,3.3,5.3,3.5c0.5,0.1,1.1,0.1,1.7,0.1c0.9,0,1.9-0.1,2.8-0.1l0,0.2c1.2,0,2.4,0,3.7,0
						C278.1,588.6,278.8,588.5,279.6,588.4 M307.8,590c4.3-0.3,5.2-3.6,5.6-7c0.4-4-2.9-3.2-5.1-3.4c-2.8-0.2-5.7-0.5-8.5-0.5
						c-0.4,0-0.9,0-1.3,0c-4.2,0.2-5.3,3.8-5.7,7c-0.5,3.8,2.9,3.2,5.2,3.5c1.8,0.2,3.6,0.2,6.2,0.4c0.4,0,1.2,0,2,0
						C306.7,590.1,307.2,590,307.8,590 M342.5,584.7c0.3-1.6-0.3-3.1-2.1-3.3c-3.9-0.3-7.8-0.7-11.7-0.7c-0.6,0-1.1,0-1.7,0.1
						c-3.9,0.2-4.9,3.8-5.2,7c-0.4,3.9,3,3.1,5.3,3.4c1.6,0.3,3.3,0.2,5.4,0.4c0.8,0,1.9,0.1,3,0c0.7,0,1.3-0.1,2-0.2
						C341.1,590.7,341.9,587.6,342.5,584.7"/>
				</g>
				<g class="st5">
					<defs>
						<path id="SVGID_34_" class="st5" d="M589.4,196.5l7,3.4c2.1,2.8,0.9,5.4,0.1,8c-14.6,44.1-29.2,88.2-43.8,132.3
							c-16.6,50.1-33.2,100.1-49.8,150.2c-0.8,2.5-2,4.9,1.4,6.6c1.5,0.7,1.9,2.7,1.6,4.4c-1.1,5.5-2.7,10.8-5.3,15.7
							c-1.2,2.2-3.5,3.4-5.9,4.3c-3.8,1.5-4.2,4.3-1.2,7.1c2,1.8,2.3,4,1.6,6.4c-1.3,4.4-2.6,8.8-4.3,13c-1.2,2.9-3.9,4.4-6.7,5.6
							c-3.8,1.6-4.3,4.3-1.3,7c2.6,2.3,2.2,5,1.5,7.7c-0.8,3-1.9,5.9-2.9,8.8c-2,5.9-5.4,8.7-11.7,8.8c-2.4,0.1-3.9,1-5.4,2.7
							c-13.4,14.7-29.6,24.1-49.5,26.5c-1.7,0.2-3.4,0.3-5.1,0.3c-5.7,0.1-11.4-0.6-17.1-0.7c-10.2-0.2-20.4-0.9-30.6-1.6l-7-3.4
							c10.2,0.7,20.4,1.4,30.6,1.6c5.7,0.1,11.4,0.8,17.1,0.7c1.7,0,3.4-0.1,5.1-0.3c19.9-2.4,36.1-11.8,49.5-26.5
							c1.6-1.7,3-2.6,5.4-2.7c6.2-0.1,9.6-2.9,11.7-8.8c1-2.9,2.1-5.8,2.9-8.8c0.7-2.7,1.1-5.5-1.5-7.7c-3-2.7-2.5-5.4,1.3-7
							c2.8-1.2,5.5-2.7,6.7-5.6c1.7-4.2,3-8.6,4.3-13c0.7-2.3,0.3-4.5-1.6-6.4c-3-2.8-2.6-5.6,1.2-7.1c2.4-0.9,4.7-2.1,5.9-4.3
							c2.6-4.9,4.2-10.2,5.3-15.7c0.3-1.8,0-3.7-1.6-4.4c-3.4-1.7-2.2-4.2-1.4-6.6c16.6-50.1,33.2-100.1,49.8-150.2
							c14.6-44.1,29.2-88.2,43.8-132.3C590.3,201.9,591.5,199.3,589.4,196.5z"/>
					</defs>
					<clipPath id="SVGID_27_">
						<use xlink:href="#SVGID_34_"  style="overflow:visible;"/>
					</clipPath>
					<g class="st30">
						<path class="st10" d="M589.4,196.5l7,3.4c0.5,0.7,0.8,1.3,1,2l-7-3.4C590.2,197.8,589.9,197.2,589.4,196.5"/>
						<path class="st9" d="M590.4,198.5l7,3.4c0.1,0.3,0.1,0.7,0.2,1l-7-3.4C590.5,199.2,590.5,198.8,590.4,198.5"/>
						<path class="st8" d="M590.6,199.5l7,3.4c0,0.3,0,0.6,0,0.9l-7-3.4C590.6,200.1,590.6,199.8,590.6,199.5"/>
						<path class="st7" d="M590.6,200.4l7,3.4c0,0.3-0.1,0.7-0.1,1l-7-3.4C590.5,201.1,590.5,200.7,590.6,200.4"/>
						<path class="st11" d="M590.4,201.4l7,3.4c-0.1,0.6-0.3,1.2-0.5,1.8l-7-3.4C590.1,202.6,590.3,202,590.4,201.4"/>
						<path class="st12" d="M589.9,203.2l7,3.4c-0.1,0.4-0.3,0.9-0.4,1.3c-14.6,44.1-29.2,88.2-43.8,132.3
							c-16.6,50.1-33.2,100.1-49.8,150.2c-0.1,0.4-0.3,0.9-0.4,1.3l-7-3.4c0.1-0.4,0.3-0.9,0.4-1.3c16.6-50.1,33.2-100.1,49.8-150.2
							c14.6-44.1,29.2-88.2,43.8-132.3C589.6,204.1,589.8,203.6,589.9,203.2"/>
						<path class="st11" d="M495.5,488.3l7,3.4c-0.1,0.4-0.3,0.8-0.3,1.3l-7-3.4C495.2,489.1,495.3,488.7,495.5,488.3"/>
						<path class="st7" d="M495.1,489.5l7,3.4c0,0.2-0.1,0.4-0.1,0.7l-7-3.4C495.1,490,495.1,489.8,495.1,489.5"/>
						<path class="st8" d="M495,490.2l7,3.4c0,0.2,0,0.4,0,0.5l-7-3.4C495,490.6,495,490.4,495,490.2"/>
						<path class="st9" d="M495,490.7l7,3.4c0,0.2,0,0.4,0.1,0.6l-7-3.4C495.1,491.1,495,490.9,495,490.7"/>
						<path class="st10" d="M495.1,491.3l7,3.4c0.1,0.4,0.3,0.8,0.6,1.1l-7-3.4C495.4,492.1,495.2,491.7,495.1,491.3"/>
						<path class="st9" d="M495.7,492.5l7,3.4c0.2,0.2,0.4,0.4,0.6,0.5l-7-3.4C496.1,492.8,495.9,492.6,495.7,492.5"/>
						<path class="st8" d="M496.3,493l7,3.4c0.2,0.2,0.4,0.3,0.7,0.5l-7-3.4C496.8,493.3,496.5,493.1,496.3,493"/>
						<path class="st7" d="M497,493.4l7,3.4c0.1,0.1,0.2,0.1,0.3,0.2c0,0,0.1,0,0.1,0.1l-7-3.4c0,0-0.1,0-0.1-0.1
							C497.2,493.6,497.1,493.5,497,493.4"/>
						<path class="st8" d="M497.4,493.7l7,3.4c0.1,0.1,0.2,0.1,0.3,0.2l-7-3.4C497.7,493.8,497.6,493.7,497.4,493.7"/>
						<path class="st9" d="M497.8,493.9l7,3.4c0.1,0.1,0.3,0.2,0.4,0.4l-7-3.4C498,494.1,497.9,494,497.8,493.9"/>
						<path class="st10" d="M498.2,494.2l7,3.4c0.3,0.4,0.5,0.8,0.7,1.3l-7-3.4C498.7,495.1,498.5,494.6,498.2,494.2"/>
						<path class="st9" d="M498.8,495.6l7,3.4c0.1,0.3,0.1,0.6,0.1,0.9l-7-3.4C499,496.2,498.9,495.9,498.8,495.6"/>
						<path class="st8" d="M499,496.5l7,3.4c0,0.3,0,0.5,0,0.8l-7-3.4C499,497,499,496.7,499,496.5"/>
						<path class="st7" d="M499,497.3l7,3.4c0,0.2-0.1,0.5-0.1,0.7c0,0.1-0.1,0.3-0.1,0.4l-7-3.4c0-0.1,0.1-0.3,0.1-0.4
							C498.9,497.8,499,497.5,499,497.3"/>
						<path class="st11" d="M498.8,498.4l7,3.4c-0.5,2.6-1.2,5.1-2,7.6l-7-3.4C497.6,503.5,498.3,501,498.8,498.4"/>
						<path class="st12" d="M496.8,506l7,3.4c-0.7,2-1.4,3.9-2.3,5.8l-7-3.4C495.4,509.9,496.2,508,496.8,506"/>
						<path class="st17" d="M494.5,511.8l7,3.4c-0.3,0.6-0.6,1.3-0.9,1.9c-0.1,0.1-0.2,0.3-0.2,0.4l-7-3.4c0.1-0.1,0.2-0.3,0.2-0.4
							C493.9,513.1,494.2,512.5,494.5,511.8"/>
						<path class="st16" d="M493.3,514.1l7,3.4c-0.2,0.3-0.4,0.5-0.6,0.8l-7-3.4C493,514.7,493.2,514.4,493.3,514.1"/>
						<path class="st14" d="M492.7,514.9l7,3.4c-1.3,1.4-3.2,2.3-5.1,3.1c-1.1,0.4-1.9,1-2.4,1.6l-7-3.4c0.5-0.6,1.3-1.1,2.4-1.6
							C489.6,517.3,491.5,516.4,492.7,514.9"/>
						<path class="st16" d="M485.3,519.6l7,3.4c-0.1,0.1-0.2,0.3-0.3,0.4l-7-3.4C485,519.9,485.2,519.7,485.3,519.6"/>
						<path class="st17" d="M484.9,520l7,3.4c-0.1,0.1-0.1,0.2-0.2,0.3l-7-3.4C484.8,520.3,484.9,520.1,484.9,520"/>
						<path class="st12" d="M484.8,520.4l7,3.4c0,0.1-0.1,0.2-0.1,0.3l-7-3.4C484.7,520.6,484.7,520.5,484.8,520.4"/>
						<path class="st11" d="M484.6,520.7l7,3.4c0,0.1-0.1,0.2-0.1,0.3l-7-3.4C484.6,520.9,484.6,520.8,484.6,520.7"/>
						<path class="st7" d="M484.5,521l7,3.4c0,0.1,0,0.2,0,0.3l-7-3.4C484.5,521.2,484.5,521.1,484.5,521"/>
						<path class="st8" d="M484.5,521.3l7,3.4c0,0.1,0,0.3,0,0.4l-7-3.4C484.5,521.6,484.5,521.5,484.5,521.3"/>
						<path class="st9" d="M484.5,521.7l7,3.4c0,0.2,0.1,0.4,0.1,0.6l-7-3.4C484.6,522.2,484.5,521.9,484.5,521.7"/>
						<path class="st10" d="M484.6,522.4l7,3.4c0.2,0.7,0.6,1.3,1.2,2l-7-3.4C485.2,523.7,484.8,523,484.6,522.4"/>
						<path class="st9" d="M485.8,524.4l7,3.4c0.2,0.2,0.4,0.5,0.7,0.7c0.2,0.2,0.4,0.4,0.5,0.5l-7-3.4c-0.2-0.2-0.3-0.4-0.5-0.5
							C486.2,524.9,486,524.6,485.8,524.4"/>
						<path class="st10" d="M487,525.6l7,3.4c0.6,0.7,1,1.5,1.2,2.3l-7-3.4C488,527.1,487.6,526.3,487,525.6"/>
						<path class="st9" d="M488.2,527.9l7,3.4c0.1,0.4,0.2,0.7,0.2,1.1l-7-3.4C488.4,528.6,488.3,528.2,488.2,527.9"/>
						<path class="st8" d="M488.4,529l7,3.4c0,0.3,0,0.6,0,0.9l-7-3.4C488.4,529.6,488.4,529.3,488.4,529"/>
						<path class="st7" d="M488.4,529.9l7,3.4c0,0.3-0.1,0.6-0.1,0.9l-7-3.4C488.3,530.4,488.4,530.2,488.4,529.9"/>
						<path class="st11" d="M488.3,530.8l7,3.4c0,0.2-0.1,0.5-0.2,0.7c-0.7,2.4-1.4,4.7-2.1,7.1l-7-3.4c0.8-2.3,1.5-4.7,2.1-7.1
							C488.2,531.2,488.2,531,488.3,530.8"/>
						<path class="st12" d="M486,538.5l7,3.4c-0.7,2-1.4,4-2.2,5.9c0,0.1-0.1,0.2-0.2,0.4l-7-3.4c0.1-0.1,0.1-0.2,0.2-0.4
							C484.6,542.5,485.3,540.5,486,538.5"/>
						<path class="st17" d="M483.7,544.8l7,3.4c-0.1,0.3-0.3,0.6-0.5,0.8l-7-3.4C483.4,545.4,483.5,545.1,483.7,544.8"/>
						<path class="st16" d="M483.2,545.6l7,3.4c-0.2,0.3-0.5,0.7-0.7,1l-7-3.4C482.7,546.3,483,546,483.2,545.6"/>
						<path class="st14" d="M482.5,546.6l7,3.4c-1.4,1.6-3.3,2.6-5.3,3.4c-1.1,0.5-1.9,1-2.5,1.6l-7-3.4c0.5-0.6,1.4-1.2,2.5-1.6
							C479.1,549.2,481.1,548.1,482.5,546.6"/>
						<path class="st16" d="M474.7,551.7l7,3.4c-0.1,0.2-0.3,0.3-0.4,0.5l-7-3.4C474.4,552,474.5,551.8,474.7,551.7"/>
						<path class="st17" d="M474.3,552.1l7,3.4c-0.1,0.1-0.1,0.2-0.2,0.4l-7-3.4C474.2,552.4,474.2,552.2,474.3,552.1"/>
						<path class="st12" d="M474.1,552.5l7,3.4c0,0.1-0.1,0.2-0.1,0.3l-7-3.4C474,552.7,474.1,552.6,474.1,552.5"/>
						<path class="st11" d="M474,552.8l7,3.4c0,0.1-0.1,0.2-0.1,0.3l-7-3.4C473.9,553,474,552.9,474,552.8"/>
						<path class="st7" d="M473.9,553.1l7,3.4c0,0.1,0,0.2,0,0.3l-7-3.4C473.9,553.3,473.9,553.2,473.9,553.1"/>
						<path class="st8" d="M473.9,553.4l7,3.4c0,0.1,0,0.3,0,0.4l-7-3.4C473.9,553.7,473.9,553.6,473.9,553.4"/>
						<path class="st9" d="M473.9,553.8l7,3.4c0,0.2,0,0.4,0.1,0.6l-7-3.4C473.9,554.2,473.9,554,473.9,553.8"/>
						<path class="st10" d="M474,554.4l7,3.4c0.2,0.6,0.5,1.2,1.1,1.8l-7-3.4C474.5,555.6,474.1,555,474,554.4"/>
						<path class="st9" d="M475,556.2l7,3.4c0.2,0.3,0.5,0.5,0.8,0.8c0.2,0.2,0.5,0.4,0.6,0.6l-7-3.4c-0.2-0.2-0.4-0.4-0.6-0.6
							C475.5,556.8,475.2,556.5,475,556.2"/>
						<path class="st10" d="M476.5,557.7l7,3.4c0.6,0.7,1,1.4,1.2,2.2l-7-3.4C477.4,559.1,477.1,558.4,476.5,557.7"/>
						<path class="st9" d="M477.6,559.8l7,3.4c0.1,0.4,0.2,0.8,0.2,1.1l-7-3.4C477.8,560.6,477.7,560.2,477.6,559.8"/>
						<path class="st8" d="M477.8,561l7,3.4c0,0.4,0,0.7,0,1.1l-7-3.4C477.8,561.7,477.8,561.3,477.8,561"/>
						<path class="st7" d="M477.8,562l7,3.4c0,0.5-0.1,0.9-0.2,1.4l-7-3.4C477.7,563,477.8,562.5,477.8,562"/>
						<path class="st11" d="M477.6,563.4l7,3.4c-0.1,0.4-0.2,0.9-0.3,1.3c-0.3,1.2-0.7,2.4-1.1,3.5l-7-3.4c0.4-1.2,0.7-2.3,1.1-3.5
							C477.4,564.3,477.5,563.9,477.6,563.4"/>
						<path class="st12" d="M476.2,568.3l7,3.4c-0.6,1.8-1.2,3.5-1.8,5.3c-0.3,0.7-0.5,1.4-0.8,2.1l-7-3.4c0.3-0.6,0.6-1.3,0.8-2.1
							C475,571.8,475.6,570.1,476.2,568.3"/>
						<path class="st17" d="M473.6,575.6l7,3.4c-0.3,0.6-0.6,1.2-0.9,1.7l-7-3.4C473,576.8,473.3,576.2,473.6,575.6"/>
						<path class="st16" d="M472.6,577.4l7,3.4c-0.3,0.5-0.7,1-1.1,1.5l-7-3.4C471.9,578.4,472.3,577.9,472.6,577.4"/>
						<path class="st14" d="M471.6,578.8l7,3.4c-2,2.3-4.9,3.5-8.8,3.5c-2.4,0.1-3.9,1-5.4,2.7c-13.4,14.7-29.6,24.1-49.5,26.5
							c-1.7,0.2-3.4,0.3-5.1,0.3c-5.7,0.1-11.4-0.6-17.1-0.7c-10.2-0.2-20.4-0.9-30.6-1.6l-7-3.4c10.2,0.7,20.4,1.4,30.6,1.6
							c5.7,0.1,11.4,0.8,17.1,0.7c1.7,0,3.4-0.1,5.1-0.3c19.9-2.4,36.1-11.8,49.5-26.5c1.6-1.7,3-2.6,5.4-2.7
							C466.7,582.3,469.5,581.1,471.6,578.8"/>
					</g>
				</g>
			</g>
		</g>
	</g>
	<g class="st31">
		
			<image style="overflow:visible;" width="2242" height="2447" xlink:href="D51DEBC.png"  transform="matrix(0.24 0 0 0.24 82.8 51.84)">
		</image>
	</g>
	<g class="st32">
		
			<image style="overflow:visible;" width="2242" height="2447" xlink:href="D51DEBD.png"  transform="matrix(0.24 0 0 0.24 82.8 51.84)">
		</image>
	</g>
	<g>
		
			<image style="overflow:visible;opacity:0.3;" width="1441" height="587" xlink:href="D51DEBA.png"  transform="matrix(0.24 0 0 0.24 238.68 87.24)">
		</image>
		<g>
			<g>
				<path class="st33" d="M253.9,191.6c6.4-18,11.7-35.8,18.7-53.1c3-7.6,7-14.7,12.4-20.9c8.5-9.7,19.5-14.1,32-15
					c11.5-0.8,23,0.6,34.4,1.3c17.8,1.1,35.5,2.4,53.3,3.7c22.4,1.6,44.8,3.1,67.2,4.6c8.1,0.6,16.3,1.1,24.4,1.4
					c3.9,0.2,6.6,1.4,9,4.8c20.5,29.1,41.2,58,61.7,87c1.2,1.6,3.1,2.9,1.7,5.7c-1.5,3-3.8,1.5-5.6,1.4c-22.9-1.4-45.8-3.1-68.7-4.6
					c-21.8-1.5-43.5-2.9-65.3-4.3c-22.4-1.5-44.8-3.1-67.2-4.6c-17.1-1.2-34.2-2.2-51.3-3.4C291.9,194.2,273.2,192.9,253.9,191.6z
					 M450.3,133.2c5.1,0.3,9.5-3.1,9.3-7.3c-0.2-5.8-4.9-4.9-8.5-5.2c-8.8-0.7-17.5-1.2-26.3-1.9c-2.4-0.2-4.6,0.2-6.6,1.6
					c-2.5,1.7-4.2,4-3.5,7.1c0.7,3.2,3.5,3.7,6.2,3.9C430.7,132,440.5,132.6,450.3,133.2z M301.3,190.4c0.4-0.1,1.6-0.1,2.7-0.5
					c3.1-1.2,3.6-4.1,4.2-6.8c0.3-1.4-0.6-2.7-2.1-2.9c-4.7-0.8-9.6-1.3-14.3-0.6c-3.7,0.6-4.6,4.3-4.6,7.4c0,2.8,2.9,2.6,5,2.7
					C295,189.8,297.8,190.1,301.3,190.4z M273.8,188.5c2,0,4,0.3,5.9-0.1c3.6-0.7,4.2-3.9,4.8-6.8c0.4-1.7-0.6-3-2.3-3.2
					c-4.4-0.4-8.9-1.1-13.3-0.8c-4,0.3-5.1,3.9-5.2,7.3c-0.1,3.4,3.1,2.8,5.2,3.1C270.5,188.4,272.2,188.4,273.8,188.5z"/>
			</g>
			<defs>
				<filter id="Adobe_OpacityMaskFilter_1_" filterUnits="userSpaceOnUse" x="253.9" y="102.4" width="315.4" height="110.6">
					
						<feColorMatrix  type="matrix" values="-1 0 0 0 1  0 -1 0 0 1  0 0 -1 0 1  0 0 0 1 0" color-interpolation-filters="sRGB" result="source"/>
				</filter>
			</defs>
			<mask maskUnits="userSpaceOnUse" x="253.9" y="102.4" width="315.4" height="110.6" id="SVGID_29_">
				<g class="st34">
					
						<image style="overflow:visible;" width="1332" height="478" xlink:href="D51DEBD.jpg"  transform="matrix(0.24 0 0 0.24 251.76 100.32)">
					</image>
				</g>
			</mask>
			<g class="st35">
				<path class="st36" d="M253.9,191.6c6.4-18,11.7-35.8,18.7-53.1c3-7.6,7-14.7,12.4-20.9c8.5-9.7,19.5-14.1,32-15
					c11.5-0.8,23,0.6,34.4,1.3c17.8,1.1,35.5,2.4,53.3,3.7c22.4,1.6,44.8,3.1,67.2,4.6c8.1,0.6,16.3,1.1,24.4,1.4
					c3.9,0.2,6.6,1.4,9,4.8c20.5,29.1,41.2,58,61.7,87c1.2,1.6,3.1,2.9,1.7,5.7c-1.5,3-3.8,1.5-5.6,1.4c-22.9-1.4-45.8-3.1-68.7-4.6
					c-21.8-1.5-43.5-2.9-65.3-4.3c-22.4-1.5-44.8-3.1-67.2-4.6c-17.1-1.2-34.2-2.2-51.3-3.4C291.9,194.2,273.2,192.9,253.9,191.6z
					 M450.3,133.2c5.1,0.3,9.5-3.1,9.3-7.3c-0.2-5.8-4.9-4.9-8.5-5.2c-8.8-0.7-17.5-1.2-26.3-1.9c-2.4-0.2-4.6,0.2-6.6,1.6
					c-2.5,1.7-4.2,4-3.5,7.1c0.7,3.2,3.5,3.7,6.2,3.9C430.7,132,440.5,132.6,450.3,133.2z M301.3,190.4c0.4-0.1,1.6-0.1,2.7-0.5
					c3.1-1.2,3.6-4.1,4.2-6.8c0.3-1.4-0.6-2.7-2.1-2.9c-4.7-0.8-9.6-1.3-14.3-0.6c-3.7,0.6-4.6,4.3-4.6,7.4c0,2.8,2.9,2.6,5,2.7
					C295,189.8,297.8,190.1,301.3,190.4z M273.8,188.5c2,0,4,0.3,5.9-0.1c3.6-0.7,4.2-3.9,4.8-6.8c0.4-1.7-0.6-3-2.3-3.2
					c-4.4-0.4-8.9-1.1-13.3-0.8c-4,0.3-5.1,3.9-5.2,7.3c-0.1,3.4,3.1,2.8,5.2,3.1C270.5,188.4,272.2,188.4,273.8,188.5z"/>
			</g>
		</g>
	</g>
	<g>
		
			<image style="overflow:visible;opacity:0.3;" width="2120" height="2362" xlink:href="D51DEA8.png"  transform="matrix(0.24 0 0 0.24 98.04 66.84)">
		</image>
		<g>
			<g>
				<path class="st37" d="M461.9,549.6c-1-0.1-1.9-0.2-2.6-0.4c-7.1-1.7-8.9-7.2-3.6-12.5c4.1-4.1,8.7-7.7,13.2-11.5
					c1.3-1.1,2.4-2,3-3.8c0.8-2.4,1.7-3.8-2.2-4.4c-6.4-0.9-8-7.1-3.2-11.9c4.1-4.1,8.6-7.9,13.1-11.5c1.8-1.4,2.9-3,3.6-5.1
					c32.2-93.9,64.3-187.7,96.6-281.5c1-2.9,0.6-4.9-1.2-7.3c-22.4-30.8-44.7-61.6-67-92.5c-1.7-2.4-3.6-3.5-6.6-3.7
					c-36.9-2.3-73.7-4.7-110.6-7.2c-21.8-1.5-43.5-3.1-65.2-4.7c-28.6-2.2-55.3,14.9-64.8,42.2c-10.4,29.6-20.5,59.4-30.7,89.1
					c-0.3,0.8-0.6,1.5-1,2.2c-0.5-0.2-0.8-0.3-1-0.5c-5.6-5.2-5.2-10.7-2.6-17.6c9.3-25.5,17.7-51.3,26.6-76.9
					c9.2-26.3,39.5-48.5,67.3-48.2c16.2,0.1,32.4,2.2,48.6,3.3c11.4,0.8,22.9,1.4,34.3,2.2c18.2,1.2,36.4,2.6,54.6,3.8
					c11.3,0.8,22.5,1.5,33.8,2.2c6.5,0.4,12.9,0.7,19.4,1c2.1,0.1,3.3,1.2,4.4,2.7c24.1,33.3,48.2,66.5,72.3,99.7
					c2.1,2.8,0.9,5.4,0,8c-15.1,44-30.1,87.9-45.2,131.9c-17.1,49.9-34.3,99.8-51.5,149.6c-0.8,2.5-2.1,4.9,1.4,6.7
					c1.5,0.8,1.9,2.7,1.5,4.5c-1.1,5.5-2.8,10.8-5.5,15.6c-1.2,2.2-3.6,3.3-6,4.2c-3.8,1.4-4.3,4.2-1.3,7.1c2,1.9,2.3,4.1,1.6,6.4
					c-1.3,4.4-2.7,8.7-4.4,12.9c-1.2,2.9-3.9,4.3-6.8,5.5c-3.9,1.6-4.4,4.3-1.4,7c2.6,2.3,2.2,5,1.4,7.8c-0.8,3-1.9,5.9-3,8.8
					c-2.1,5.9-5.6,8.6-11.8,8.6c-2.5,0-3.9,0.9-5.5,2.6c-13.7,14.5-30.1,23.7-50.2,25.7c-7.5,0.8-15-0.5-22.4-0.8
					c-10.3-0.4-20.6-1.3-30.9-2.1c-2.2-0.2-3.1,0.7-3.7,2.4c-0.8,2.2-1.5,4.4-2.2,6.6c-0.6,1.8-1.8,2.8-3.7,2.7
					c-9.6-0.5-19.2-1.2-28.8-1.6c-4.6-0.2-6.9-3.6-9.4-6.6c-2.5-2.9-5.4-3.9-9.1-4.1c-12.1-0.5-24.3-1.3-36.4-2.2
					c-2.8-0.2-5.4,0-7.6,1.6c-8.6,6.2-17.9,6.8-27.9,4.9c-4.9-0.9-9.9,0-14.9-1c-3.2-0.6-3.4-1.9-2.5-4.3c0.9-2.5,1.7-5,2.8-8.1
					c-9.3-0.6-18.2-1.1-27.1-1.9c-11.1-0.9-22.3-0.7-33.3-2.8c-25.6-5-39.3-28.1-31-53c14.3-42.8,29.1-85.4,43.7-128.1
					c17.5-51.2,35.1-102.3,52.6-153.5c0.2-0.4,0.4-0.9,0.7-1.3c6.2,4.6,7.2,7.5,4.9,14.3C187,359.2,156.7,447.6,126.4,536
					c-4.3,12.5-4.1,24.5,4.4,35.4c6.7,8.6,16.2,11.9,26.6,12.7c16.3,1.2,32.5,2.2,48.8,3.3c2.4,0.2,3.8-0.7,5.6-2.6
					c6.2-6.2,13.1-11.7,19.7-17.6c1.4-1.3,3.2-0.9,4.8-0.8c21.6,1.5,43.2,3,64.8,4.5c12.5,0.9,24.9,1.9,37.4,2.4
					c4,0.2,6.5,1.1,7.6,5.3c1.5,5.9,5.5,11,5.6,17.3c0,1.6,1,1.4,2,1.5c15.8,1,31.5,2.5,47.3,2.9c16.5,0.5,30.2-6.6,42.2-17.5
					c1.2-1.1,2.5-2,0.6-3.9c-3.7-3.8-1.8-7.5,1.2-10.4c3.9-3.8,8-7.5,12.4-10.8C460.2,555.5,461.2,553,461.9,549.6z"/>
			</g>
			<defs>
				<filter id="Adobe_OpacityMaskFilter_2_" filterUnits="userSpaceOnUse" x="113.1" y="82" width="478.5" height="536.6">
					
						<feColorMatrix  type="matrix" values="-1 0 0 0 1  0 -1 0 0 1  0 0 -1 0 1  0 0 0 1 0" color-interpolation-filters="sRGB" result="source"/>
				</filter>
			</defs>
			<mask maskUnits="userSpaceOnUse" x="113.1" y="82" width="478.5" height="536.6" id="SVGID_31_">
				<g class="st38">
					
						<image style="overflow:visible;" width="2012" height="2253" xlink:href="D51DEA9.jpg"  transform="matrix(0.24 0 0 0.24 110.88 79.92)">
					</image>
				</g>
			</mask>
			<g class="st39">
				<path class="st36" d="M461.9,549.6c-1-0.1-1.9-0.2-2.6-0.4c-7.1-1.7-8.9-7.2-3.6-12.5c4.1-4.1,8.7-7.7,13.2-11.5
					c1.3-1.1,2.4-2,3-3.8c0.8-2.4,1.7-3.8-2.2-4.4c-6.4-0.9-8-7.1-3.2-11.9c4.1-4.1,8.6-7.9,13.1-11.5c1.8-1.4,2.9-3,3.6-5.1
					c32.2-93.9,64.3-187.7,96.6-281.5c1-2.9,0.6-4.9-1.2-7.3c-22.4-30.8-44.7-61.6-67-92.5c-1.7-2.4-3.6-3.5-6.6-3.7
					c-36.9-2.3-73.7-4.7-110.6-7.2c-21.8-1.5-43.5-3.1-65.2-4.7c-28.6-2.2-55.3,14.9-64.8,42.2c-10.4,29.6-20.5,59.4-30.7,89.1
					c-0.3,0.8-0.6,1.5-1,2.2c-0.5-0.2-0.8-0.3-1-0.5c-5.6-5.2-5.2-10.7-2.6-17.6c9.3-25.5,17.7-51.3,26.6-76.9
					c9.2-26.3,39.5-48.5,67.3-48.2c16.2,0.1,32.4,2.2,48.6,3.3c11.4,0.8,22.9,1.4,34.3,2.2c18.2,1.2,36.4,2.6,54.6,3.8
					c11.3,0.8,22.5,1.5,33.8,2.2c6.5,0.4,12.9,0.7,19.4,1c2.1,0.1,3.3,1.2,4.4,2.7c24.1,33.3,48.2,66.5,72.3,99.7
					c2.1,2.8,0.9,5.4,0,8c-15.1,44-30.1,87.9-45.2,131.9c-17.1,49.9-34.3,99.8-51.5,149.6c-0.8,2.5-2.1,4.9,1.4,6.7
					c1.5,0.8,1.9,2.7,1.5,4.5c-1.1,5.5-2.8,10.8-5.5,15.6c-1.2,2.2-3.6,3.3-6,4.2c-3.8,1.4-4.3,4.2-1.3,7.1c2,1.9,2.3,4.1,1.6,6.4
					c-1.3,4.4-2.7,8.7-4.4,12.9c-1.2,2.9-3.9,4.3-6.8,5.5c-3.9,1.6-4.4,4.3-1.4,7c2.6,2.3,2.2,5,1.4,7.8c-0.8,3-1.9,5.9-3,8.8
					c-2.1,5.9-5.6,8.6-11.8,8.6c-2.5,0-3.9,0.9-5.5,2.6c-13.7,14.5-30.1,23.7-50.2,25.7c-7.5,0.8-15-0.5-22.4-0.8
					c-10.3-0.4-20.6-1.3-30.9-2.1c-2.2-0.2-3.1,0.7-3.7,2.4c-0.8,2.2-1.5,4.4-2.2,6.6c-0.6,1.8-1.8,2.8-3.7,2.7
					c-9.6-0.5-19.2-1.2-28.8-1.6c-4.6-0.2-6.9-3.6-9.4-6.6c-2.5-2.9-5.4-3.9-9.1-4.1c-12.1-0.5-24.3-1.3-36.4-2.2
					c-2.8-0.2-5.4,0-7.6,1.6c-8.6,6.2-17.9,6.8-27.9,4.9c-4.9-0.9-9.9,0-14.9-1c-3.2-0.6-3.4-1.9-2.5-4.3c0.9-2.5,1.7-5,2.8-8.1
					c-9.3-0.6-18.2-1.1-27.1-1.9c-11.1-0.9-22.3-0.7-33.3-2.8c-25.6-5-39.3-28.1-31-53c14.3-42.8,29.1-85.4,43.7-128.1
					c17.5-51.2,35.1-102.3,52.6-153.5c0.2-0.4,0.4-0.9,0.7-1.3c6.2,4.6,7.2,7.5,4.9,14.3C187,359.2,156.7,447.6,126.4,536
					c-4.3,12.5-4.1,24.5,4.4,35.4c6.7,8.6,16.2,11.9,26.6,12.7c16.3,1.2,32.5,2.2,48.8,3.3c2.4,0.2,3.8-0.7,5.6-2.6
					c6.2-6.2,13.1-11.7,19.7-17.6c1.4-1.3,3.2-0.9,4.8-0.8c21.6,1.5,43.2,3,64.8,4.5c12.5,0.9,24.9,1.9,37.4,2.4
					c4,0.2,6.5,1.1,7.6,5.3c1.5,5.9,5.5,11,5.6,17.3c0,1.6,1,1.4,2,1.5c15.8,1,31.5,2.5,47.3,2.9c16.5,0.5,30.2-6.6,42.2-17.5
					c1.2-1.1,2.5-2,0.6-3.9c-3.7-3.8-1.8-7.5,1.2-10.4c3.9-3.8,8-7.5,12.4-10.8C460.2,555.5,461.2,553,461.9,549.6z"/>
			</g>
		</g>
	</g>
	<g>
		<g>
			<path class="st33" d="M345.9,412.6c-17.7-12.3-31.3-27.6-43.3-44.3c-44.9-62.5-89.7-125-134.7-187.4
				c-7.6-10.5-15.5-20.8-23.4-31.1c-1.7-2.2-2-3.6,0.1-5.9c4-4.4,7.7-9.2,11.7-13.9c0.6,0.8,1.4,1.6,2,2.5c5.5,7.5,5.7,7.5,12.3,0.9
				c9.4,13,18.7,25.9,28,38.8c3.7,5.1,7.2,10.3,11.1,15.4c1.4,1.9,1.4,3-0.1,4.8c-5.4,6.6-5.3,6.7-0.3,13.6
				c38.9,54.1,77.8,108.1,116.7,162.2C335.5,381.5,340.6,396.7,345.9,412.6z"/>
		</g>
		<defs>
			<filter id="Adobe_OpacityMaskFilter_3_" filterUnits="userSpaceOnUse" x="143.2" y="130.1" width="202.7" height="282.5">
				
					<feColorMatrix  type="matrix" values="-1 0 0 0 1  0 -1 0 0 1  0 0 -1 0 1  0 0 0 1 0" color-interpolation-filters="sRGB" result="source"/>
			</filter>
		</defs>
		<mask maskUnits="userSpaceOnUse" x="143.2" y="130.1" width="202.7" height="282.5" id="SVGID_33_">
			<g class="st40">
				
					<image style="overflow:visible;" width="862" height="1195" xlink:href="D51DEAA.jpg"  transform="matrix(0.24 0 0 0.24 141.12 127.92)">
				</image>
			</g>
		</mask>
		<g class="st41">
			<path class="st42" d="M345.9,412.6c-17.7-12.3-31.3-27.6-43.3-44.3c-44.9-62.5-89.7-125-134.7-187.4
				c-7.6-10.5-15.5-20.8-23.4-31.1c-1.7-2.2-2-3.6,0.1-5.9c4-4.4,7.7-9.2,11.7-13.9c0.6,0.8,1.4,1.6,2,2.5c5.5,7.5,5.7,7.5,12.3,0.9
				c9.4,13,18.7,25.9,28,38.8c3.7,5.1,7.2,10.3,11.1,15.4c1.4,1.9,1.4,3-0.1,4.8c-5.4,6.6-5.3,6.7-0.3,13.6
				c38.9,54.1,77.8,108.1,116.7,162.2C335.5,381.5,340.6,396.7,345.9,412.6z"/>
		</g>
	</g>
	<g>
		
			<image style="overflow:visible;opacity:0.3;" width="1522" height="1409" xlink:href="ECD52FFA.png"  transform="matrix(0.24 0 0 0.24 163.8 218.28)">
		</image>
		<g>
			<g>
				<g>
					<path class="st43" d="M179,410.4c3.7-12.7,3.7-12.8,15.7-12c35.3,2.3,70.7,4.7,106,7c2.2,0.1,3.2,1.1,4.4,2.6
						c14.2,18,28.6,35.9,42.7,54c2.4,3.1,4.3,3.8,8.1,1.9c9.4-4.7,19.7-6.2,30.1-3.9c20.2,4.5,29.5,22.7,22.4,43.1
						c-7.1,20.6-29.5,37.3-51.4,38.3c-25.9,1.2-41.5-19.9-32.9-44.4c2.6-7.5,6.8-14,12.4-19.6c1.9-1.9,2-3.1,0.3-5.2
						c-13.8-17.1-27.5-34.2-41-51.5c-2-2.6-4.4-2.7-7-2.9c-15.3-1.1-30.5-2.1-45.8-3.1C221.9,413.2,200.6,411.8,179,410.4z
						 M396.6,493.4c0.1-11.2-7.4-19.6-18.5-21c-17.5-2.2-36.4,10.1-41.3,26.9c-4.2,14.4,3,26.2,17.6,28.9c4,0.7,7.9,0.2,11.9-0.7
						C382.5,523.9,396.5,508.2,396.6,493.4z"/>
					<path class="st43" d="M325.1,354.2c9.4,0.5,17.8,1,26.2,1.5c25.4,1.7,50.8,3.5,76.1,5.4c2.4,0.2,3.1-1.1,4.1-2.7
						c9.7-15.4,23.4-25,41.3-28.5c18.9-3.8,36,5.8,40.1,22.9c1.9,8,0.7,15.8-2.5,23.4c-8.7,20.9-31.1,35.6-53.8,35.3
						c-19.9-0.2-33.2-14.7-31.4-34.6c0.3-3.3-1.5-3.1-3.5-3.2c-10.8-0.7-21.6-1.4-32.4-2.1c-16.9-1.1-33.9-2.2-50.8-3.2
						c-2.9-0.2-4.9-1.1-6.4-3.7C330.4,361.2,327.9,358.1,325.1,354.2z M461.8,398.5c16.8,0,32.8-12.3,37.2-28.5
						c3.6-13.5-4.4-26-17.7-27.5c-17.4-2-35.6,9.8-40.9,26.7C435.2,385.3,444.9,398.5,461.8,398.5z"/>
					<path class="st43" d="M437.7,268.1c-1,14.8-10.7,28.1-25.6,37.8c-12.5,8.2-26.2,12.1-41.2,7.7c-15-4.4-23.5-17.1-21.7-32.5
						c0.4-3.2-0.8-3.4-3.4-3.6c-22.7-1.5-45.5-3.1-68.2-4.7c-2.4-0.2-4.3,0.3-5.7,2.1c-1.7,2.1-3.1,2.1-4.4-0.4
						c-1.3-2.4-5.1-4.8-4.1-6.8c1.7-3.2,5.2-5.5,8.2-7.8c0.8-0.7,2.6-0.4,3.9-0.3c16.3,1.1,32.5,2.2,48.8,3.2
						c8.6,0.6,17.3,1,25.9,1.8c2.9,0.3,4.3-0.9,5.8-3.2c12.7-18.8,29.8-29.5,53.2-28C426.3,234.5,437.9,247.3,437.7,268.1z
						 M423.8,267.2c0-11.1-7.1-19.2-18.1-20.8c-17.7-2.4-37.1,10.3-41.7,27.6c-3.7,13.8,3.1,24.9,17,27.9c4.2,0.9,8.2,0.4,12.3-0.5
						C409.9,298,423.8,282.4,423.8,267.2z"/>
					<path class="st43" d="M291.2,364.9c-32.1-2.2-63.2-4.3-94.5-6.4c1.5-4.4,1.9-9.2,4.4-11.9c2.7-2.8,7.4-0.2,11.3,0
						c21.6,1.2,43.1,2.7,64.7,4.1c3.1,0.2,5.3,1.2,6.9,4C285.9,357.8,288.3,360.8,291.2,364.9z"/>
					<path class="st43" d="M225.3,311.5c-0.9,0-1,0-1.2,0c-11.6-0.3-12.1-1-7.4-11.5c0.8-1.7,1.6-2.5,3.3-2
						c6.3,1.9,10.9-0.7,14.9-5.2c1.9-2.2,3.1-2.5,5.1,0.3c4.5,6.5,4.8,6.4-1.4,11.9C234.6,308.4,231.3,313.6,225.3,311.5z"/>
					<path class="st43" d="M377.7,518.9c-11.8-0.9-22.2-1.6-32.5-2.4c-0.9-0.1-2.1,0.2-1.7-1.5c0.5-2,0.8-3.7,3.7-3.6
						c5.6,0.2,11.2,1.5,17.2,0.9c-1.6-3.3-3.4-5.9-7.5-5.8c-3.3,0.1-6.6,0-9.9,0c-0.2-4.3,1.5-5.6,5-5.1c3.5,0.5,6.9,0.7,10.4,0.9
						c1.5,0.1,2.4,0.7,3.3,1.8C369.4,508.6,373.1,513.1,377.7,518.9z"/>
					<path class="st43" d="M383.8,500c-1.1,3.1-2.1,6.6-3.4,10c-0.6,1.7-2.2,1.1-3.5,0.8c-1.8-0.3-1.5-1.6-0.9-2.6
						c3.9-6.1,0-8.5-4.8-10.8c-4-1.9-7.8-4.3-11.6-6.6c-2.2-1.4-3.5-1.4-4.1,1.4c-0.3,1.4-0.9,2.8-1.4,4.2c-0.7,2-2.3,1.5-3.7,1.3
						c-2.5-0.5-0.9-2.2-0.6-3c1.4-4.2,1.9-10.5,4.8-11.9c3.1-1.5,7.5,3.4,11.4,5.4c5.2,2.8,10.4,5.8,15.5,8.9
						C382.5,497.6,384.2,497.8,383.8,500z"/>
					<path class="st43" d="M490.2,354.8c-1.5,9.5-3.8,18.6-7.8,27.2c-4.2,8.8-17.5,12-25.7,6.5c-2.1-1.4-3.1-3.3-3.1-5.8
						c-0.1-3.1,0.5-6.3,2.3-8.5c4.6-5.8,3-10.9-0.8-15.9c-2.6-3.4,0.4-4.2,2.2-5.5c3-2.3,2.8,1.2,3.8,2.3c0.3,0.3,0.4,0.9,0.7,1.3
						c4.4,5.6,5.8,11.1,0.2,16.9c-0.8,0.8-1,2.1-1.4,3.1c-2.1,5.7-0.3,8.6,5.7,9.1c6.8,0.6,10.1-1.5,12.6-7.9
						c1.7-4.5,3-9.1,3.8-13.8c0.2-1.2,1.1-2.7-1.1-3.1c-1.6-0.2-2.9-0.1-3.5,1.8c-1,3.2-2.5,6.2-3.2,9.4c-0.7,3.2-2.8,2.9-4.9,2.4
						c-2.8-0.7-1-2.5-0.6-3.9c1.5-4.6,3.1-9.1,4.5-13.6c0.7-2.2,1.5-3.2,4.2-2.8C482,354.4,486,354.5,490.2,354.8z"/>
					<path class="st43" d="M372.7,276.1c4.9-10.4,13.1-16.8,24-21.7c-2.2,6.5-4.2,12.2-6.1,18c-2,5.9-4.2,11.8-6,17.8
						c-0.8,2.8-2.4,4.1-4.9,3.1c-2.7-1-0.6-2.9-0.2-4.3c2.3-7.2,4.8-14.3,7.2-21.6C380.6,268.4,381,278.6,372.7,276.1z"/>
					<path class="st43" d="M406.8,255.5c-2,6-3.6,11.2-5.6,16.3c-0.9,2.2-0.5,3,1.8,3.2c3.1,0.2,6.3,0.5,9.4,0.8
						c0,3.9-1.6,5.1-5.5,4.9c-8.6-0.5-8.6-0.3-11.5,8.2c-0.4,1.3-1,2.5-1.4,3.7c-0.8,2.4-2.5,1.6-4.1,1.3c-2.1-0.5-1.3-1.8-0.9-3.1
						c3.8-10.9,7.7-21.8,11.2-32.8C401.7,254.1,404.2,255.9,406.8,255.5z"/>
				</g>
			</g>
			<defs>
				<filter id="Adobe_OpacityMaskFilter_4_" filterUnits="userSpaceOnUse" x="179" y="233.3" width="334.9" height="308.1">
					
						<feColorMatrix  type="matrix" values="-1 0 0 0 1  0 -1 0 0 1  0 0 -1 0 1  0 0 0 1 0" color-interpolation-filters="sRGB" result="source"/>
				</filter>
			</defs>
			<mask maskUnits="userSpaceOnUse" x="179" y="233.3" width="334.9" height="308.1" id="SVGID_35_">
				<g class="st44">
					
						<image style="overflow:visible;" width="1413" height="1302" xlink:href="ECD52FE4.jpg"  transform="matrix(0.24 0 0 0.24 176.88 231.12)">
					</image>
				</g>
			</mask>
			<g class="st45">
				<g>
					<path class="st36" d="M179,410.4c3.7-12.7,3.7-12.8,15.7-12c35.3,2.3,70.7,4.7,106,7c2.2,0.1,3.2,1.1,4.4,2.6
						c14.2,18,28.6,35.9,42.7,54c2.4,3.1,4.3,3.8,8.1,1.9c9.4-4.7,19.7-6.2,30.1-3.9c20.2,4.5,29.5,22.7,22.4,43.1
						c-7.1,20.6-29.5,37.3-51.4,38.3c-25.9,1.2-41.5-19.9-32.9-44.4c2.6-7.5,6.8-14,12.4-19.6c1.9-1.9,2-3.1,0.3-5.2
						c-13.8-17.1-27.5-34.2-41-51.5c-2-2.6-4.4-2.7-7-2.9c-15.3-1.1-30.5-2.1-45.8-3.1C221.9,413.2,200.6,411.8,179,410.4z
						 M396.6,493.4c0.1-11.2-7.4-19.6-18.5-21c-17.5-2.2-36.4,10.1-41.3,26.9c-4.2,14.4,3,26.2,17.6,28.9c4,0.7,7.9,0.2,11.9-0.7
						C382.5,523.9,396.5,508.2,396.6,493.4z"/>
					<path class="st36" d="M325.1,354.2c9.4,0.5,17.8,1,26.2,1.5c25.4,1.7,50.8,3.5,76.1,5.4c2.4,0.2,3.1-1.1,4.1-2.7
						c9.7-15.4,23.4-25,41.3-28.5c18.9-3.8,36,5.8,40.1,22.9c1.9,8,0.7,15.8-2.5,23.4c-8.7,20.9-31.1,35.6-53.8,35.3
						c-19.9-0.2-33.2-14.7-31.4-34.6c0.3-3.3-1.5-3.1-3.5-3.2c-10.8-0.7-21.6-1.4-32.4-2.1c-16.9-1.1-33.9-2.2-50.8-3.2
						c-2.9-0.2-4.9-1.1-6.4-3.7C330.4,361.2,327.9,358.1,325.1,354.2z M461.8,398.5c16.8,0,32.8-12.3,37.2-28.5
						c3.6-13.5-4.4-26-17.7-27.5c-17.4-2-35.6,9.8-40.9,26.7C435.2,385.3,444.9,398.5,461.8,398.5z"/>
					<path class="st36" d="M437.7,268.1c-1,14.8-10.7,28.1-25.6,37.8c-12.5,8.2-26.2,12.1-41.2,7.7c-15-4.4-23.5-17.1-21.7-32.5
						c0.4-3.2-0.8-3.4-3.4-3.6c-22.7-1.5-45.5-3.1-68.2-4.7c-2.4-0.2-4.3,0.3-5.7,2.1c-1.7,2.1-3.1,2.1-4.4-0.4
						c-1.3-2.4-5.1-4.8-4.1-6.8c1.7-3.2,5.2-5.5,8.2-7.8c0.8-0.7,2.6-0.4,3.9-0.3c16.3,1.1,32.5,2.2,48.8,3.2
						c8.6,0.6,17.3,1,25.9,1.8c2.9,0.3,4.3-0.9,5.8-3.2c12.7-18.8,29.8-29.5,53.2-28C426.3,234.5,437.9,247.3,437.7,268.1z
						 M423.8,267.2c0-11.1-7.1-19.2-18.1-20.8c-17.7-2.4-37.1,10.3-41.7,27.6c-3.7,13.8,3.1,24.9,17,27.9c4.2,0.9,8.2,0.4,12.3-0.5
						C409.9,298,423.8,282.4,423.8,267.2z"/>
					<path class="st36" d="M291.2,364.9c-32.1-2.2-63.2-4.3-94.5-6.4c1.5-4.4,1.9-9.2,4.4-11.9c2.7-2.8,7.4-0.2,11.3,0
						c21.6,1.2,43.1,2.7,64.7,4.1c3.1,0.2,5.3,1.2,6.9,4C285.9,357.8,288.3,360.8,291.2,364.9z"/>
					<path class="st36" d="M225.3,311.5c-0.9,0-1,0-1.2,0c-11.6-0.3-12.1-1-7.4-11.5c0.8-1.7,1.6-2.5,3.3-2
						c6.3,1.9,10.9-0.7,14.9-5.2c1.9-2.2,3.1-2.5,5.1,0.3c4.5,6.5,4.8,6.4-1.4,11.9C234.6,308.4,231.3,313.6,225.3,311.5z"/>
					<path class="st36" d="M377.7,518.9c-11.8-0.9-22.2-1.6-32.5-2.4c-0.9-0.1-2.1,0.2-1.7-1.5c0.5-2,0.8-3.7,3.7-3.6
						c5.6,0.2,11.2,1.5,17.2,0.9c-1.6-3.3-3.4-5.9-7.5-5.8c-3.3,0.1-6.6,0-9.9,0c-0.2-4.3,1.5-5.6,5-5.1c3.5,0.5,6.9,0.7,10.4,0.9
						c1.5,0.1,2.4,0.7,3.3,1.8C369.4,508.6,373.1,513.1,377.7,518.9z"/>
					<path class="st36" d="M383.8,500c-1.1,3.1-2.1,6.6-3.4,10c-0.6,1.7-2.2,1.1-3.5,0.8c-1.8-0.3-1.5-1.6-0.9-2.6
						c3.9-6.1,0-8.5-4.8-10.8c-4-1.9-7.8-4.3-11.6-6.6c-2.2-1.4-3.5-1.4-4.1,1.4c-0.3,1.4-0.9,2.8-1.4,4.2c-0.7,2-2.3,1.5-3.7,1.3
						c-2.5-0.5-0.9-2.2-0.6-3c1.4-4.2,1.9-10.5,4.8-11.9c3.1-1.5,7.5,3.4,11.4,5.4c5.2,2.8,10.4,5.8,15.5,8.9
						C382.5,497.6,384.2,497.8,383.8,500z"/>
					<path class="st36" d="M490.2,354.8c-1.5,9.5-3.8,18.6-7.8,27.2c-4.2,8.8-17.5,12-25.7,6.5c-2.1-1.4-3.1-3.3-3.1-5.8
						c-0.1-3.1,0.5-6.3,2.3-8.5c4.6-5.8,3-10.9-0.8-15.9c-2.6-3.4,0.4-4.2,2.2-5.5c3-2.3,2.8,1.2,3.8,2.3c0.3,0.3,0.4,0.9,0.7,1.3
						c4.4,5.6,5.8,11.1,0.2,16.9c-0.8,0.8-1,2.1-1.4,3.1c-2.1,5.7-0.3,8.6,5.7,9.1c6.8,0.6,10.1-1.5,12.6-7.9
						c1.7-4.5,3-9.1,3.8-13.8c0.2-1.2,1.1-2.7-1.1-3.1c-1.6-0.2-2.9-0.1-3.5,1.8c-1,3.2-2.5,6.2-3.2,9.4c-0.7,3.2-2.8,2.9-4.9,2.4
						c-2.8-0.7-1-2.5-0.6-3.9c1.5-4.6,3.1-9.1,4.5-13.6c0.7-2.2,1.5-3.2,4.2-2.8C482,354.4,486,354.5,490.2,354.8z"/>
					<path class="st36" d="M372.7,276.1c4.9-10.4,13.1-16.8,24-21.7c-2.2,6.5-4.2,12.2-6.1,18c-2,5.9-4.2,11.8-6,17.8
						c-0.8,2.8-2.4,4.1-4.9,3.1c-2.7-1-0.6-2.9-0.2-4.3c2.3-7.2,4.8-14.3,7.2-21.6C380.6,268.4,381,278.6,372.7,276.1z"/>
					<path class="st36" d="M406.8,255.5c-2,6-3.6,11.2-5.6,16.3c-0.9,2.2-0.5,3,1.8,3.2c3.1,0.2,6.3,0.5,9.4,0.8
						c0,3.9-1.6,5.1-5.5,4.9c-8.6-0.5-8.6-0.3-11.5,8.2c-0.4,1.3-1,2.5-1.4,3.7c-0.8,2.4-2.5,1.6-4.1,1.3c-2.1-0.5-1.3-1.8-0.9-3.1
						c3.8-10.9,7.7-21.8,11.2-32.8C401.7,254.1,404.2,255.9,406.8,255.5z"/>
				</g>
			</g>
		</g>
	</g>
	<g class="st46">
		
			<image style="overflow:visible;" width="1822" height="1711" xlink:href="ECD52FF8.png"  transform="matrix(0.24 0 0 0.24 125.76 180)">
		</image>
	</g>
	<path class="st47" d="M301.3,190.4c-3.5-0.3-6.3-0.6-9.1-0.8c-2.1-0.1-5,0.1-5-2.7c0-3.1,0.8-6.8,4.6-7.4c4.7-0.7,9.5-0.2,14.3,0.6
		c1.5,0.3,2.4,1.5,2.1,2.9c-0.5,2.7-1,5.7-4.2,6.8C303,190.3,301.8,190.4,301.3,190.4z"/>
	<path class="st47" d="M273.8,188.5c-1.6-0.1-3.3-0.1-4.9-0.4c-2.1-0.4-5.3,0.3-5.2-3.1c0.1-3.4,1.2-7,5.2-7.3
		c4.4-0.3,8.9,0.4,13.3,0.8c1.8,0.2,2.7,1.5,2.3,3.2c-0.7,2.9-1.2,6.1-4.8,6.8C277.9,188.8,275.8,188.5,273.8,188.5z"/>
	<path class="st48" d="M253.7,584.3c-1.5,0-3,0.1-4.5,0c-2.4-0.3-5.5,0-5.4-3.6c0.2-3.4,1.2-6.8,5.4-7.1c3.6-0.3,7.3-0.3,10.9,0.5
		c2,0.4,4.9,0.2,4.5,3.3c-0.3,3.1-1.1,6.5-5,7c-2,0.3-4,0-6,0C253.7,584.4,253.7,584.3,253.7,584.3z"/>
	<path class="st47" d="M313.2,588.4c-2.1-0.2-3.8-0.2-5.5-0.4c-2.3-0.4-5.7,0.3-5.3-3.5c0.3-3.1,1.4-6.7,5.3-6.9
		c4.5-0.2,9,0.4,13.4,0.9c1.8,0.2,2.5,1.7,2.1,3.3c-0.7,2.9-1.4,6-5.1,6.6C316.4,588.6,314.5,588.4,313.2,588.4z"/>
	<path class="st49" d="M284.5,586.5c-2.6-0.2-4.4-0.2-6.2-0.5c-2.3-0.4-5.7,0.1-5.2-3.6c0.4-3.2,1.5-6.8,5.8-6.9
		c3.3-0.1,6.6,0.2,9.9,0.6c2.3,0.2,5.6-0.4,5.2,3.5c-0.4,3.4-1.4,6.6-5.7,6.9C286.7,586.5,285.2,586.5,284.5,586.5z"/>
</g>
<g id="Layer_2" class="st50">
	<g class="st51">
		<g>
			<path d="M350,0H0v350C0,156.7,156.7,0,350,0z"/>
		</g>
		<defs>
			<filter id="Adobe_OpacityMaskFilter_5_" filterUnits="userSpaceOnUse" x="0" y="0" width="350" height="350">
				
					<feColorMatrix  type="matrix" values="-1 0 0 0 1  0 -1 0 0 1  0 0 -1 0 1  0 0 0 1 0" color-interpolation-filters="sRGB" result="source"/>
			</filter>
		</defs>
		<mask maskUnits="userSpaceOnUse" x="0" y="0" width="350" height="350" id="SVGID_36_">
			<g class="st52">
				
					<image style="overflow:visible;" width="1476" height="1476" xlink:href="ECD52FE2.jpg"  transform="matrix(0.24 0 0 0.24 -2.16 -2.16)">
				</image>
			</g>
		</mask>
		<g class="st53">
			<path class="st54" d="M350,0H0v350C0,156.7,156.7,0,350,0z"/>
		</g>
	</g>
	<g class="st51">
		<g>
			<path d="M350,700h350V350C700,543.3,543.3,700,350,700z"/>
		</g>
		<defs>
			<filter id="Adobe_OpacityMaskFilter_6_" filterUnits="userSpaceOnUse" x="350" y="350" width="350" height="350">
				
					<feColorMatrix  type="matrix" values="-1 0 0 0 1  0 -1 0 0 1  0 0 -1 0 1  0 0 0 1 0" color-interpolation-filters="sRGB" result="source"/>
			</filter>
		</defs>
		<mask maskUnits="userSpaceOnUse" x="350" y="350" width="350" height="350" id="SVGID_37_">
			<g class="st55">
				
					<image style="overflow:visible;" width="1475" height="1475" xlink:href="ECD52FFE.jpg"  transform="matrix(0.24 0 0 0.24 348 348)">
				</image>
			</g>
		</mask>
		<g class="st56">
			<path class="st54" d="M350,700h350V350C700,543.3,543.3,700,350,700z"/>
		</g>
	</g>
	<g class="st51">
		<g>
			<path d="M0,350v350h350C156.7,700,0,543.3,0,350z"/>
		</g>
		<defs>
			<filter id="Adobe_OpacityMaskFilter_7_" filterUnits="userSpaceOnUse" x="0" y="350" width="350" height="350">
				
					<feColorMatrix  type="matrix" values="-1 0 0 0 1  0 -1 0 0 1  0 0 -1 0 1  0 0 0 1 0" color-interpolation-filters="sRGB" result="source"/>
			</filter>
		</defs>
		<mask maskUnits="userSpaceOnUse" x="0" y="350" width="350" height="350" id="SVGID_38_">
			<g class="st57">
				
					<image style="overflow:visible;" width="1476" height="1475" xlink:href="ECD52FFD.jpg"  transform="matrix(0.24 0 0 0.24 -2.16 348)">
				</image>
			</g>
		</mask>
		<g class="st58">
			<path class="st54" d="M0,350v350h350C156.7,700,0,543.3,0,350z"/>
		</g>
	</g>
	<g class="st51">
		<g>
			<path d="M350,0c193.3,0,350,156.7,350,350V0H350z"/>
		</g>
		<defs>
			<filter id="Adobe_OpacityMaskFilter_8_" filterUnits="userSpaceOnUse" x="350" y="0" width="350" height="350">
				
					<feColorMatrix  type="matrix" values="-1 0 0 0 1  0 -1 0 0 1  0 0 -1 0 1  0 0 0 1 0" color-interpolation-filters="sRGB" result="source"/>
			</filter>
		</defs>
		<mask maskUnits="userSpaceOnUse" x="350" y="0" width="350" height="350" id="SVGID_39_">
			<g class="st59">
				
					<image style="overflow:visible;" width="1475" height="1476" xlink:href="ECD52FE8.jpg"  transform="matrix(0.24 0 0 0.24 348 -2.16)">
				</image>
			</g>
		</mask>
		<g class="st60">
			<path class="st54" d="M350,0c193.3,0,350,156.7,350,350V0H350z"/>
		</g>
	</g>
</g>
<g id="Layer_7">
</g>
<g id="Layer_3">
</g>
<g id="Layer_6">
</g>
<g id="Layer_1">
</g>
<g id="Layer_5">
</g>
<g id="Layer_4">
</g>
</svg>
